<svg id="Calque_6" data-name="Calque 6" xmlns="http://www.w3.org/2000/svg" xmlns:xlink="http://www.w3.org/1999/xlink" viewBox="0 0 246.34 240.66"><defs><style>.cls-1{fill:none;clip-rule:evenodd;}.cls-2{opacity:0.4;}.cls-3{clip-path:url(#clip-path);}.cls-4{fill:#444;}</style><clipPath id="clip-path" transform="translate(69.19 40.03)"><path class="cls-1" d="M170.78,82.84c-.78,51.66-39.31,89.94-89.32,88.75C33,170.4,3.09,140.24,3.49,93S48.67,1.88,96.66,2c40.59,0,74.76,37.35,74.12,80.89"/></clipPath></defs><title>search-left-graphic</title><g class="cls-2"><g class="cls-3"><path class="cls-4" d="M-62.5-38a1,1,0,0,0,1-1,1,1,0,0,0-1-1,1,1,0,0,0-1,1A1,1,0,0,0-62.5-38Z" transform="translate(69.19 40.03)"/><path class="cls-4" d="M-51.14-38a1,1,0,0,0,1-1,1,1,0,0,0-1-1,1,1,0,0,0-1,1A1,1,0,0,0-51.14-38Z" transform="translate(69.19 40.03)"/><path class="cls-4" d="M-39.77-38a1,1,0,0,0,1-1,1,1,0,0,0-1-1,1,1,0,0,0-1,1A1,1,0,0,0-39.77-38Z" transform="translate(69.19 40.03)"/><circle class="cls-4" cx="40.78" cy="1.01" r="1.01"/><path class="cls-4" d="M-17-38a1,1,0,0,0,1-1,1,1,0,0,0-1-1,1,1,0,0,0-1,1A1,1,0,0,0-17-38Z" transform="translate(69.19 40.03)"/><path class="cls-4" d="M-5.68-38a1,1,0,0,0,1-1,1,1,0,0,0-1-1,1,1,0,0,0-1,1A1,1,0,0,0-5.68-38Z" transform="translate(69.19 40.03)"/><path class="cls-4" d="M5.68-38a1,1,0,0,0,1-1,1,1,0,0,0-1-1,1,1,0,0,0-1,1A1,1,0,0,0,5.68-38Z" transform="translate(69.19 40.03)"/><path class="cls-4" d="M17.05-38a1,1,0,0,0,1-1,1,1,0,0,0-1-1,1,1,0,0,0-1,1A1,1,0,0,0,17.05-38Z" transform="translate(69.19 40.03)"/><circle class="cls-4" cx="97.6" cy="1.01" r="1.01"/><path class="cls-4" d="M39.77-38a1,1,0,0,0,1-1,1,1,0,0,0-1-1,1,1,0,0,0-1,1A1,1,0,0,0,39.77-38Z" transform="translate(69.19 40.03)"/><path class="cls-4" d="M51.14-38a1,1,0,0,0,1-1,1,1,0,0,0-1-1,1,1,0,0,0-1,1A1,1,0,0,0,51.14-38Z" transform="translate(69.19 40.03)"/><path class="cls-4" d="M62.5-38a1,1,0,0,0,1-1,1,1,0,0,0-1-1,1,1,0,0,0-1,1A1,1,0,0,0,62.5-38Z" transform="translate(69.19 40.03)"/><path class="cls-4" d="M73.87-38a1,1,0,0,0,1-1,1,1,0,0,0-1-1,1,1,0,0,0-1,1A1,1,0,0,0,73.87-38Z" transform="translate(69.19 40.03)"/><circle class="cls-4" cx="154.42" cy="1.01" r="1.01"/><path class="cls-4" d="M96.59-38a1,1,0,0,0,1-1,1,1,0,0,0-1-1,1,1,0,0,0-1,1A1,1,0,0,0,96.59-38Z" transform="translate(69.19 40.03)"/><path class="cls-4" d="M108-38a1,1,0,0,0,1-1,1,1,0,0,0-1-1,1,1,0,0,0-1,1A1,1,0,0,0,108-38Z" transform="translate(69.19 40.03)"/><path class="cls-4" d="M119.32-38a1,1,0,0,0,1-1,1,1,0,0,0-1-1,1,1,0,0,0-1,1A1,1,0,0,0,119.32-38Z" transform="translate(69.19 40.03)"/><path class="cls-4" d="M130.68-38a1,1,0,0,0,1-1,1,1,0,0,0-1-1,1,1,0,0,0-1,1A1,1,0,0,0,130.68-38Z" transform="translate(69.19 40.03)"/><circle class="cls-4" cx="211.24" cy="1.01" r="1.01"/><path class="cls-4" d="M153.41-38a1,1,0,0,0,1-1,1,1,0,0,0-1-1,1,1,0,0,0-1,1A1,1,0,0,0,153.41-38Z" transform="translate(69.19 40.03)"/><path class="cls-4" d="M164.78-38a1,1,0,0,0,1-1,1,1,0,0,0-1-1,1,1,0,0,0-1,1A1,1,0,0,0,164.78-38Z" transform="translate(69.19 40.03)"/><path class="cls-4" d="M176.14-38a1,1,0,0,0,1-1,1,1,0,0,0-1-1,1,1,0,0,0-1,1A1,1,0,0,0,176.14-38Z" transform="translate(69.19 40.03)"/><path class="cls-4" d="M-68.18-26.65a1,1,0,0,0,1-1,1,1,0,0,0-1-1,1,1,0,0,0-1,1A1,1,0,0,0-68.18-26.65Z" transform="translate(69.19 40.03)"/><circle class="cls-4" cx="12.37" cy="12.37" r="1.01"/><path class="cls-4" d="M-45.46-26.65a1,1,0,0,0,1-1,1,1,0,0,0-1-1,1,1,0,0,0-1,1A1,1,0,0,0-45.46-26.65Z" transform="translate(69.19 40.03)"/><path class="cls-4" d="M-34.09-26.65a1,1,0,0,0,1-1,1,1,0,0,0-1-1,1,1,0,0,0-1,1A1,1,0,0,0-34.09-26.65Z" transform="translate(69.19 40.03)"/><path class="cls-4" d="M-22.73-26.65a1,1,0,0,0,1-1,1,1,0,0,0-1-1,1,1,0,0,0-1,1A1,1,0,0,0-22.73-26.65Z" transform="translate(69.19 40.03)"/><path class="cls-4" d="M-11.36-26.65a1,1,0,0,0,1-1,1,1,0,0,0-1-1,1,1,0,0,0-1,1A1,1,0,0,0-11.36-26.65Z" transform="translate(69.19 40.03)"/><circle class="cls-4" cx="69.19" cy="12.37" r="1.01"/><path class="cls-4" d="M11.36-26.65a1,1,0,0,0,1-1,1,1,0,0,0-1-1,1,1,0,0,0-1,1A1,1,0,0,0,11.36-26.65Z" transform="translate(69.19 40.03)"/><path class="cls-4" d="M22.73-26.65a1,1,0,0,0,1-1,1,1,0,0,0-1-1,1,1,0,0,0-1,1A1,1,0,0,0,22.73-26.65Z" transform="translate(69.19 40.03)"/><path class="cls-4" d="M34.09-26.65a1,1,0,0,0,1-1,1,1,0,0,0-1-1,1,1,0,0,0-1,1A1,1,0,0,0,34.09-26.65Z" transform="translate(69.19 40.03)"/><path class="cls-4" d="M45.46-26.65a1,1,0,0,0,1-1,1,1,0,0,0-1-1,1,1,0,0,0-1,1A1,1,0,0,0,45.46-26.65Z" transform="translate(69.19 40.03)"/><circle class="cls-4" cx="126.01" cy="12.37" r="1.01"/><path class="cls-4" d="M68.18-26.65a1,1,0,0,0,1-1,1,1,0,0,0-1-1,1,1,0,0,0-1,1A1,1,0,0,0,68.18-26.65Z" transform="translate(69.19 40.03)"/><path class="cls-4" d="M79.55-26.65a1,1,0,0,0,1-1,1,1,0,0,0-1-1,1,1,0,0,0-1,1A1,1,0,0,0,79.55-26.65Z" transform="translate(69.19 40.03)"/><path class="cls-4" d="M90.91-26.65a1,1,0,0,0,1-1,1,1,0,0,0-1-1,1,1,0,0,0-1,1A1,1,0,0,0,90.91-26.65Z" transform="translate(69.19 40.03)"/><path class="cls-4" d="M102.28-26.65a1,1,0,0,0,1-1,1,1,0,0,0-1-1,1,1,0,0,0-1,1A1,1,0,0,0,102.28-26.65Z" transform="translate(69.19 40.03)"/><circle class="cls-4" cx="182.83" cy="12.37" r="1.01"/><path class="cls-4" d="M125-26.65a1,1,0,0,0,1-1,1,1,0,0,0-1-1,1,1,0,0,0-1,1A1,1,0,0,0,125-26.65Z" transform="translate(69.19 40.03)"/><path class="cls-4" d="M136.37-26.65a1,1,0,0,0,1-1,1,1,0,0,0-1-1,1,1,0,0,0-1,1A1,1,0,0,0,136.37-26.65Z" transform="translate(69.19 40.03)"/><path class="cls-4" d="M147.73-26.65a1,1,0,0,0,1-1,1,1,0,0,0-1-1,1,1,0,0,0-1,1A1,1,0,0,0,147.73-26.65Z" transform="translate(69.19 40.03)"/><path class="cls-4" d="M159.09-26.65a1,1,0,0,0,1-1,1,1,0,0,0-1-1,1,1,0,0,0-1,1A1,1,0,0,0,159.09-26.65Z" transform="translate(69.19 40.03)"/><circle class="cls-4" cx="239.65" cy="12.37" r="1.01"/><path class="cls-4" d="M-62.5-15.29a1,1,0,0,0,1-1,1,1,0,0,0-1-1,1,1,0,0,0-1,1A1,1,0,0,0-62.5-15.29Z" transform="translate(69.19 40.03)"/><path class="cls-4" d="M-51.14-15.29a1,1,0,0,0,1-1,1,1,0,0,0-1-1,1,1,0,0,0-1,1A1,1,0,0,0-51.14-15.29Z" transform="translate(69.19 40.03)"/><path class="cls-4" d="M-39.77-15.29a1,1,0,0,0,1-1,1,1,0,0,0-1-1,1,1,0,0,0-1,1A1,1,0,0,0-39.77-15.29Z" transform="translate(69.19 40.03)"/><path class="cls-4" d="M-28.41-15.29a1,1,0,0,0,1-1,1,1,0,0,0-1-1,1,1,0,0,0-1,1A1,1,0,0,0-28.41-15.29Z" transform="translate(69.19 40.03)"/><path class="cls-4" d="M-17-15.29a1,1,0,0,0,1-1,1,1,0,0,0-1-1,1,1,0,0,0-1,1A1,1,0,0,0-17-15.29Z" transform="translate(69.19 40.03)"/><path class="cls-4" d="M-5.68-15.29a1,1,0,0,0,1-1,1,1,0,0,0-1-1,1,1,0,0,0-1,1A1,1,0,0,0-5.68-15.29Z" transform="translate(69.19 40.03)"/><path class="cls-4" d="M5.68-15.29a1,1,0,0,0,1-1,1,1,0,0,0-1-1,1,1,0,0,0-1,1A1,1,0,0,0,5.68-15.29Z" transform="translate(69.19 40.03)"/><path class="cls-4" d="M17.05-15.29a1,1,0,0,0,1-1,1,1,0,0,0-1-1,1,1,0,0,0-1,1A1,1,0,0,0,17.05-15.29Z" transform="translate(69.19 40.03)"/><path class="cls-4" d="M28.41-15.29a1,1,0,0,0,1-1,1,1,0,0,0-1-1,1,1,0,0,0-1,1A1,1,0,0,0,28.41-15.29Z" transform="translate(69.19 40.03)"/><path class="cls-4" d="M39.77-15.29a1,1,0,0,0,1-1,1,1,0,0,0-1-1,1,1,0,0,0-1,1A1,1,0,0,0,39.77-15.29Z" transform="translate(69.19 40.03)"/><path class="cls-4" d="M51.14-15.29a1,1,0,0,0,1-1,1,1,0,0,0-1-1,1,1,0,0,0-1,1A1,1,0,0,0,51.14-15.29Z" transform="translate(69.19 40.03)"/><path class="cls-4" d="M62.5-15.29a1,1,0,0,0,1-1,1,1,0,0,0-1-1,1,1,0,0,0-1,1A1,1,0,0,0,62.5-15.29Z" transform="translate(69.19 40.03)"/><path class="cls-4" d="M73.87-15.29a1,1,0,0,0,1-1,1,1,0,0,0-1-1,1,1,0,0,0-1,1A1,1,0,0,0,73.87-15.29Z" transform="translate(69.19 40.03)"/><path class="cls-4" d="M85.23-15.29a1,1,0,0,0,1-1,1,1,0,0,0-1-1,1,1,0,0,0-1,1A1,1,0,0,0,85.23-15.29Z" transform="translate(69.19 40.03)"/><path class="cls-4" d="M96.59-15.29a1,1,0,0,0,1-1,1,1,0,0,0-1-1,1,1,0,0,0-1,1A1,1,0,0,0,96.59-15.29Z" transform="translate(69.19 40.03)"/><path class="cls-4" d="M108-15.29a1,1,0,0,0,1-1,1,1,0,0,0-1-1,1,1,0,0,0-1,1A1,1,0,0,0,108-15.29Z" transform="translate(69.19 40.03)"/><path class="cls-4" d="M119.32-15.29a1,1,0,0,0,1-1,1,1,0,0,0-1-1,1,1,0,0,0-1,1A1,1,0,0,0,119.32-15.29Z" transform="translate(69.19 40.03)"/><path class="cls-4" d="M130.68-15.29a1,1,0,0,0,1-1,1,1,0,0,0-1-1,1,1,0,0,0-1,1A1,1,0,0,0,130.68-15.29Z" transform="translate(69.19 40.03)"/><path class="cls-4" d="M142.05-15.29a1,1,0,0,0,1-1,1,1,0,0,0-1-1,1,1,0,0,0-1,1A1,1,0,0,0,142.05-15.29Z" transform="translate(69.19 40.03)"/><path class="cls-4" d="M153.41-15.29a1,1,0,0,0,1-1,1,1,0,0,0-1-1,1,1,0,0,0-1,1A1,1,0,0,0,153.41-15.29Z" transform="translate(69.19 40.03)"/><path class="cls-4" d="M164.78-15.29a1,1,0,0,0,1-1,1,1,0,0,0-1-1,1,1,0,0,0-1,1A1,1,0,0,0,164.78-15.29Z" transform="translate(69.19 40.03)"/><path class="cls-4" d="M176.14-15.29a1,1,0,0,0,1-1,1,1,0,0,0-1-1,1,1,0,0,0-1,1A1,1,0,0,0,176.14-15.29Z" transform="translate(69.19 40.03)"/><path class="cls-4" d="M-68.18-3.93a1,1,0,0,0,1-1,1,1,0,0,0-1-1,1,1,0,0,0-1,1A1,1,0,0,0-68.18-3.93Z" transform="translate(69.19 40.03)"/><path class="cls-4" d="M-56.82-3.93a1,1,0,0,0,1-1,1,1,0,0,0-1-1,1,1,0,0,0-1,1A1,1,0,0,0-56.82-3.93Z" transform="translate(69.19 40.03)"/><path class="cls-4" d="M-45.46-3.93a1,1,0,0,0,1-1,1,1,0,0,0-1-1,1,1,0,0,0-1,1A1,1,0,0,0-45.46-3.93Z" transform="translate(69.19 40.03)"/><path class="cls-4" d="M-34.09-3.93a1,1,0,0,0,1-1,1,1,0,0,0-1-1,1,1,0,0,0-1,1A1,1,0,0,0-34.09-3.93Z" transform="translate(69.19 40.03)"/><path class="cls-4" d="M-22.73-3.93a1,1,0,0,0,1-1,1,1,0,0,0-1-1,1,1,0,0,0-1,1A1,1,0,0,0-22.73-3.93Z" transform="translate(69.19 40.03)"/><path class="cls-4" d="M-11.36-3.93a1,1,0,0,0,1-1,1,1,0,0,0-1-1,1,1,0,0,0-1,1A1,1,0,0,0-11.36-3.93Z" transform="translate(69.19 40.03)"/><path class="cls-4" d="M0-3.93a1,1,0,0,0,1-1,1,1,0,0,0-1-1,1,1,0,0,0-1,1A1,1,0,0,0,0-3.93Z" transform="translate(69.19 40.03)"/><path class="cls-4" d="M11.36-3.93a1,1,0,0,0,1-1,1,1,0,0,0-1-1,1,1,0,0,0-1,1A1,1,0,0,0,11.36-3.93Z" transform="translate(69.19 40.03)"/><path class="cls-4" d="M22.73-3.93a1,1,0,0,0,1-1,1,1,0,0,0-1-1,1,1,0,0,0-1,1A1,1,0,0,0,22.73-3.93Z" transform="translate(69.19 40.03)"/><path class="cls-4" d="M34.09-3.93a1,1,0,0,0,1-1,1,1,0,0,0-1-1,1,1,0,0,0-1,1A1,1,0,0,0,34.09-3.93Z" transform="translate(69.19 40.03)"/><path class="cls-4" d="M45.46-3.93a1,1,0,0,0,1-1,1,1,0,0,0-1-1,1,1,0,0,0-1,1A1,1,0,0,0,45.46-3.93Z" transform="translate(69.19 40.03)"/><path class="cls-4" d="M56.82-3.93a1,1,0,0,0,1-1,1,1,0,0,0-1-1,1,1,0,0,0-1,1A1,1,0,0,0,56.82-3.93Z" transform="translate(69.19 40.03)"/><path class="cls-4" d="M68.18-3.93a1,1,0,0,0,1-1,1,1,0,0,0-1-1,1,1,0,0,0-1,1A1,1,0,0,0,68.18-3.93Z" transform="translate(69.19 40.03)"/><path class="cls-4" d="M79.55-3.93a1,1,0,0,0,1-1,1,1,0,0,0-1-1,1,1,0,0,0-1,1A1,1,0,0,0,79.55-3.93Z" transform="translate(69.19 40.03)"/><path class="cls-4" d="M90.91-3.93a1,1,0,0,0,1-1,1,1,0,0,0-1-1,1,1,0,0,0-1,1A1,1,0,0,0,90.91-3.93Z" transform="translate(69.19 40.03)"/><path class="cls-4" d="M102.28-3.93a1,1,0,0,0,1-1,1,1,0,0,0-1-1,1,1,0,0,0-1,1A1,1,0,0,0,102.28-3.93Z" transform="translate(69.19 40.03)"/><path class="cls-4" d="M113.64-3.93a1,1,0,0,0,1-1,1,1,0,0,0-1-1,1,1,0,0,0-1,1A1,1,0,0,0,113.64-3.93Z" transform="translate(69.19 40.03)"/><path class="cls-4" d="M125-3.93a1,1,0,0,0,1-1,1,1,0,0,0-1-1,1,1,0,0,0-1,1A1,1,0,0,0,125-3.93Z" transform="translate(69.19 40.03)"/><path class="cls-4" d="M136.37-3.93a1,1,0,0,0,1-1,1,1,0,0,0-1-1,1,1,0,0,0-1,1A1,1,0,0,0,136.37-3.93Z" transform="translate(69.19 40.03)"/><path class="cls-4" d="M147.73-3.93a1,1,0,0,0,1-1,1,1,0,0,0-1-1,1,1,0,0,0-1,1A1,1,0,0,0,147.73-3.93Z" transform="translate(69.19 40.03)"/><path class="cls-4" d="M159.09-3.93a1,1,0,0,0,1-1,1,1,0,0,0-1-1,1,1,0,0,0-1,1A1,1,0,0,0,159.09-3.93Z" transform="translate(69.19 40.03)"/><path class="cls-4" d="M170.46-3.93a1,1,0,0,0,1-1,1,1,0,0,0-1-1,1,1,0,0,0-1,1A1,1,0,0,0,170.46-3.93Z" transform="translate(69.19 40.03)"/><path class="cls-4" d="M-62.5,7.44a1,1,0,0,0,1-1,1,1,0,0,0-1-1,1,1,0,0,0-1,1A1,1,0,0,0-62.5,7.44Z" transform="translate(69.19 40.03)"/><path class="cls-4" d="M-51.14,7.44a1,1,0,0,0,1-1,1,1,0,0,0-1-1,1,1,0,0,0-1,1A1,1,0,0,0-51.14,7.44Z" transform="translate(69.19 40.03)"/><path class="cls-4" d="M-39.77,7.44a1,1,0,0,0,1-1,1,1,0,0,0-1-1,1,1,0,0,0-1,1A1,1,0,0,0-39.77,7.44Z" transform="translate(69.19 40.03)"/><path class="cls-4" d="M-28.41,7.44a1,1,0,0,0,1-1,1,1,0,0,0-1-1,1,1,0,0,0-1,1A1,1,0,0,0-28.41,7.44Z" transform="translate(69.19 40.03)"/><path class="cls-4" d="M-17,7.44a1,1,0,0,0,1-1,1,1,0,0,0-1-1,1,1,0,0,0-1,1A1,1,0,0,0-17,7.44Z" transform="translate(69.19 40.03)"/><path class="cls-4" d="M-5.68,7.44a1,1,0,0,0,1-1,1,1,0,0,0-1-1,1,1,0,0,0-1,1A1,1,0,0,0-5.68,7.44Z" transform="translate(69.19 40.03)"/><path class="cls-4" d="M5.68,7.44a1,1,0,1,0-1-1A1,1,0,0,0,5.68,7.44Z" transform="translate(69.19 40.03)"/><path class="cls-4" d="M17.05,7.44a1,1,0,1,0-1-1A1,1,0,0,0,17.05,7.44Z" transform="translate(69.19 40.03)"/><path class="cls-4" d="M28.41,7.44a1,1,0,1,0-1-1A1,1,0,0,0,28.41,7.44Z" transform="translate(69.19 40.03)"/><path class="cls-4" d="M39.77,7.44a1,1,0,1,0-1-1A1,1,0,0,0,39.77,7.44Z" transform="translate(69.19 40.03)"/><path class="cls-4" d="M51.14,7.44a1,1,0,1,0-1-1A1,1,0,0,0,51.14,7.44Z" transform="translate(69.19 40.03)"/><path class="cls-4" d="M62.5,7.44a1,1,0,1,0-1-1A1,1,0,0,0,62.5,7.44Z" transform="translate(69.19 40.03)"/><path class="cls-4" d="M73.87,7.44a1,1,0,1,0-1-1A1,1,0,0,0,73.87,7.44Z" transform="translate(69.19 40.03)"/><path class="cls-4" d="M85.23,7.44a1,1,0,1,0-1-1A1,1,0,0,0,85.23,7.44Z" transform="translate(69.19 40.03)"/><path class="cls-4" d="M96.59,7.44a1,1,0,1,0-1-1A1,1,0,0,0,96.59,7.44Z" transform="translate(69.19 40.03)"/><path class="cls-4" d="M108,7.44a1,1,0,1,0-1-1A1,1,0,0,0,108,7.44Z" transform="translate(69.19 40.03)"/><path class="cls-4" d="M119.32,7.44a1,1,0,1,0-1-1A1,1,0,0,0,119.32,7.44Z" transform="translate(69.19 40.03)"/><path class="cls-4" d="M130.68,7.44a1,1,0,1,0-1-1A1,1,0,0,0,130.68,7.44Z" transform="translate(69.19 40.03)"/><path class="cls-4" d="M142.05,7.44a1,1,0,1,0-1-1A1,1,0,0,0,142.05,7.44Z" transform="translate(69.19 40.03)"/><path class="cls-4" d="M153.41,7.44a1,1,0,1,0-1-1A1,1,0,0,0,153.41,7.44Z" transform="translate(69.19 40.03)"/><path class="cls-4" d="M164.78,7.44a1,1,0,1,0-1-1A1,1,0,0,0,164.78,7.44Z" transform="translate(69.19 40.03)"/><path class="cls-4" d="M176.14,7.44a1,1,0,1,0-1-1A1,1,0,0,0,176.14,7.44Z" transform="translate(69.19 40.03)"/><path class="cls-4" d="M-68.18,18.8a1,1,0,0,0,1-1,1,1,0,0,0-1-1,1,1,0,0,0-1,1A1,1,0,0,0-68.18,18.8Z" transform="translate(69.19 40.03)"/><circle class="cls-4" cx="12.37" cy="57.83" r="1.01"/><path class="cls-4" d="M-45.46,18.8a1,1,0,0,0,1-1,1,1,0,0,0-1-1,1,1,0,0,0-1,1A1,1,0,0,0-45.46,18.8Z" transform="translate(69.19 40.03)"/><path class="cls-4" d="M-34.09,18.8a1,1,0,0,0,1-1,1,1,0,0,0-1-1,1,1,0,0,0-1,1A1,1,0,0,0-34.09,18.8Z" transform="translate(69.19 40.03)"/><path class="cls-4" d="M-22.73,18.8a1,1,0,0,0,1-1,1,1,0,0,0-1-1,1,1,0,0,0-1,1A1,1,0,0,0-22.73,18.8Z" transform="translate(69.19 40.03)"/><path class="cls-4" d="M-11.36,18.8a1,1,0,0,0,1-1,1,1,0,0,0-1-1,1,1,0,0,0-1,1A1,1,0,0,0-11.36,18.8Z" transform="translate(69.19 40.03)"/><circle class="cls-4" cx="69.19" cy="57.83" r="1.01"/><path class="cls-4" d="M11.36,18.8a1,1,0,1,0-1-1A1,1,0,0,0,11.36,18.8Z" transform="translate(69.19 40.03)"/><path class="cls-4" d="M22.73,18.8a1,1,0,1,0-1-1A1,1,0,0,0,22.73,18.8Z" transform="translate(69.19 40.03)"/><path class="cls-4" d="M34.09,18.8a1,1,0,1,0-1-1A1,1,0,0,0,34.09,18.8Z" transform="translate(69.19 40.03)"/><path class="cls-4" d="M45.46,18.8a1,1,0,1,0-1-1A1,1,0,0,0,45.46,18.8Z" transform="translate(69.19 40.03)"/><circle class="cls-4" cx="126.01" cy="57.83" r="1.01"/><path class="cls-4" d="M68.18,18.8a1,1,0,1,0-1-1A1,1,0,0,0,68.18,18.8Z" transform="translate(69.19 40.03)"/><path class="cls-4" d="M79.55,18.8a1,1,0,1,0-1-1A1,1,0,0,0,79.55,18.8Z" transform="translate(69.19 40.03)"/><path class="cls-4" d="M90.91,18.8a1,1,0,1,0-1-1A1,1,0,0,0,90.91,18.8Z" transform="translate(69.19 40.03)"/><path class="cls-4" d="M102.28,18.8a1,1,0,1,0-1-1A1,1,0,0,0,102.28,18.8Z" transform="translate(69.19 40.03)"/><circle class="cls-4" cx="182.83" cy="57.83" r="1.01"/><path class="cls-4" d="M125,18.8a1,1,0,1,0-1-1A1,1,0,0,0,125,18.8Z" transform="translate(69.19 40.03)"/><path class="cls-4" d="M136.37,18.8a1,1,0,1,0-1-1A1,1,0,0,0,136.37,18.8Z" transform="translate(69.19 40.03)"/><path class="cls-4" d="M147.73,18.8a1,1,0,1,0-1-1A1,1,0,0,0,147.73,18.8Z" transform="translate(69.19 40.03)"/><path class="cls-4" d="M159.09,18.8a1,1,0,1,0-1-1A1,1,0,0,0,159.09,18.8Z" transform="translate(69.19 40.03)"/><circle class="cls-4" cx="239.65" cy="57.83" r="1.01"/><path class="cls-4" d="M-62.5,30.17a1,1,0,0,0,1-1,1,1,0,0,0-1-1,1,1,0,0,0-1,1A1,1,0,0,0-62.5,30.17Z" transform="translate(69.19 40.03)"/><path class="cls-4" d="M-51.14,30.17a1,1,0,0,0,1-1,1,1,0,0,0-1-1,1,1,0,0,0-1,1A1,1,0,0,0-51.14,30.17Z" transform="translate(69.19 40.03)"/><path class="cls-4" d="M-39.77,30.17a1,1,0,0,0,1-1,1,1,0,0,0-1-1,1,1,0,0,0-1,1A1,1,0,0,0-39.77,30.17Z" transform="translate(69.19 40.03)"/><circle class="cls-4" cx="40.78" cy="69.19" r="1.01"/><path class="cls-4" d="M-17,30.17a1,1,0,0,0,1-1,1,1,0,0,0-1-1,1,1,0,0,0-1,1A1,1,0,0,0-17,30.17Z" transform="translate(69.19 40.03)"/><path class="cls-4" d="M-5.68,30.17a1,1,0,0,0,1-1,1,1,0,0,0-1-1,1,1,0,0,0-1,1A1,1,0,0,0-5.68,30.17Z" transform="translate(69.19 40.03)"/><path class="cls-4" d="M5.68,30.17a1,1,0,1,0-1-1A1,1,0,0,0,5.68,30.17Z" transform="translate(69.19 40.03)"/><path class="cls-4" d="M17.05,30.17a1,1,0,1,0-1-1A1,1,0,0,0,17.05,30.17Z" transform="translate(69.19 40.03)"/><circle class="cls-4" cx="97.6" cy="69.19" r="1.01"/><path class="cls-4" d="M39.77,30.17a1,1,0,1,0-1-1A1,1,0,0,0,39.77,30.17Z" transform="translate(69.19 40.03)"/><path class="cls-4" d="M51.14,30.17a1,1,0,0,0,0-2,1,1,0,1,0,0,2Z" transform="translate(69.19 40.03)"/><path class="cls-4" d="M62.5,30.17a1,1,0,1,0-1-1A1,1,0,0,0,62.5,30.17Z" transform="translate(69.19 40.03)"/><path class="cls-4" d="M73.87,30.17a1,1,0,1,0-1-1A1,1,0,0,0,73.87,30.17Z" transform="translate(69.19 40.03)"/><circle class="cls-4" cx="154.42" cy="69.19" r="1.01"/><path class="cls-4" d="M96.59,30.17a1,1,0,1,0-1-1A1,1,0,0,0,96.59,30.17Z" transform="translate(69.19 40.03)"/><path class="cls-4" d="M108,30.17a1,1,0,1,0,0-2,1,1,0,1,0,0,2Z" transform="translate(69.19 40.03)"/><path class="cls-4" d="M119.32,30.17a1,1,0,1,0-1-1A1,1,0,0,0,119.32,30.17Z" transform="translate(69.19 40.03)"/><path class="cls-4" d="M130.68,30.17a1,1,0,1,0-1-1A1,1,0,0,0,130.68,30.17Z" transform="translate(69.19 40.03)"/><circle class="cls-4" cx="211.24" cy="69.19" r="1.01"/><path class="cls-4" d="M153.41,30.17a1,1,0,1,0-1-1A1,1,0,0,0,153.41,30.17Z" transform="translate(69.19 40.03)"/><path class="cls-4" d="M164.78,30.17a1,1,0,0,0,0-2,1,1,0,1,0,0,2Z" transform="translate(69.19 40.03)"/><path class="cls-4" d="M176.14,30.17a1,1,0,1,0-1-1A1,1,0,0,0,176.14,30.17Z" transform="translate(69.19 40.03)"/><path class="cls-4" d="M-68.18,41.53a1,1,0,0,0,1-1,1,1,0,0,0-1-1,1,1,0,0,0-1,1A1,1,0,0,0-68.18,41.53Z" transform="translate(69.19 40.03)"/><path class="cls-4" d="M-56.82,41.53a1,1,0,0,0,1-1,1,1,0,0,0-1-1,1,1,0,0,0-1,1A1,1,0,0,0-56.82,41.53Z" transform="translate(69.19 40.03)"/><path class="cls-4" d="M-45.46,41.53a1,1,0,0,0,1-1,1,1,0,0,0-1-1,1,1,0,0,0-1,1A1,1,0,0,0-45.46,41.53Z" transform="translate(69.19 40.03)"/><path class="cls-4" d="M-34.09,41.53a1,1,0,0,0,1-1,1,1,0,0,0-1-1,1,1,0,0,0-1,1A1,1,0,0,0-34.09,41.53Z" transform="translate(69.19 40.03)"/><path class="cls-4" d="M-22.73,41.53a1,1,0,0,0,1-1,1,1,0,0,0-1-1,1,1,0,0,0-1,1A1,1,0,0,0-22.73,41.53Z" transform="translate(69.19 40.03)"/><path class="cls-4" d="M-11.36,41.53a1,1,0,0,0,1-1,1,1,0,0,0-1-1,1,1,0,0,0-1,1A1,1,0,0,0-11.36,41.53Z" transform="translate(69.19 40.03)"/><path class="cls-4" d="M0,41.53a1,1,0,0,0,0-2,1,1,0,0,0-1,1A1,1,0,0,0,0,41.53Z" transform="translate(69.19 40.03)"/><path class="cls-4" d="M11.36,41.53a1,1,0,1,0-1-1A1,1,0,0,0,11.36,41.53Z" transform="translate(69.19 40.03)"/><path class="cls-4" d="M22.73,41.53a1,1,0,1,0-1-1A1,1,0,0,0,22.73,41.53Z" transform="translate(69.19 40.03)"/><path class="cls-4" d="M34.09,41.53a1,1,0,1,0-1-1A1,1,0,0,0,34.09,41.53Z" transform="translate(69.19 40.03)"/><path class="cls-4" d="M45.46,41.53a1,1,0,1,0-1-1A1,1,0,0,0,45.46,41.53Z" transform="translate(69.19 40.03)"/><path class="cls-4" d="M56.82,41.53a1,1,0,1,0-1-1A1,1,0,0,0,56.82,41.53Z" transform="translate(69.19 40.03)"/><path class="cls-4" d="M68.18,41.53a1,1,0,1,0-1-1A1,1,0,0,0,68.18,41.53Z" transform="translate(69.19 40.03)"/><path class="cls-4" d="M79.55,41.53a1,1,0,1,0-1-1A1,1,0,0,0,79.55,41.53Z" transform="translate(69.19 40.03)"/><path class="cls-4" d="M90.91,41.53a1,1,0,1,0-1-1A1,1,0,0,0,90.91,41.53Z" transform="translate(69.19 40.03)"/><path class="cls-4" d="M102.28,41.53a1,1,0,1,0-1-1A1,1,0,0,0,102.28,41.53Z" transform="translate(69.19 40.03)"/><path class="cls-4" d="M113.64,41.53a1,1,0,1,0-1-1A1,1,0,0,0,113.64,41.53Z" transform="translate(69.19 40.03)"/><path class="cls-4" d="M125,41.53a1,1,0,1,0-1-1A1,1,0,0,0,125,41.53Z" transform="translate(69.19 40.03)"/><path class="cls-4" d="M136.37,41.53a1,1,0,1,0-1-1A1,1,0,0,0,136.37,41.53Z" transform="translate(69.19 40.03)"/><path class="cls-4" d="M147.73,41.53a1,1,0,1,0-1-1A1,1,0,0,0,147.73,41.53Z" transform="translate(69.19 40.03)"/><path class="cls-4" d="M159.09,41.53a1,1,0,1,0-1-1A1,1,0,0,0,159.09,41.53Z" transform="translate(69.19 40.03)"/><path class="cls-4" d="M170.46,41.53a1,1,0,1,0-1-1A1,1,0,0,0,170.46,41.53Z" transform="translate(69.19 40.03)"/><path class="cls-4" d="M-62.5,52.89a1,1,0,0,0,1-1,1,1,0,0,0-1-1,1,1,0,0,0-1,1A1,1,0,0,0-62.5,52.89Z" transform="translate(69.19 40.03)"/><path class="cls-4" d="M-51.14,52.89a1,1,0,0,0,1-1,1,1,0,0,0-1-1,1,1,0,0,0-1,1A1,1,0,0,0-51.14,52.89Z" transform="translate(69.19 40.03)"/><path class="cls-4" d="M-39.77,52.89a1,1,0,0,0,1-1,1,1,0,0,0-1-1,1,1,0,0,0-1,1A1,1,0,0,0-39.77,52.89Z" transform="translate(69.19 40.03)"/><path class="cls-4" d="M-28.41,52.89a1,1,0,0,0,1-1,1,1,0,0,0-1-1,1,1,0,0,0-1,1A1,1,0,0,0-28.41,52.89Z" transform="translate(69.19 40.03)"/><path class="cls-4" d="M-17,52.89a1,1,0,0,0,1-1,1,1,0,0,0-1-1,1,1,0,0,0-1,1A1,1,0,0,0-17,52.89Z" transform="translate(69.19 40.03)"/><path class="cls-4" d="M-5.68,52.89a1,1,0,0,0,1-1,1,1,0,0,0-1-1,1,1,0,0,0-1,1A1,1,0,0,0-5.68,52.89Z" transform="translate(69.19 40.03)"/><path class="cls-4" d="M5.68,52.89a1,1,0,1,0-1-1A1,1,0,0,0,5.68,52.89Z" transform="translate(69.19 40.03)"/><path class="cls-4" d="M17.05,52.89a1,1,0,1,0-1-1A1,1,0,0,0,17.05,52.89Z" transform="translate(69.19 40.03)"/><path class="cls-4" d="M28.41,52.89a1,1,0,1,0-1-1A1,1,0,0,0,28.41,52.89Z" transform="translate(69.19 40.03)"/><path class="cls-4" d="M39.77,52.89a1,1,0,1,0-1-1A1,1,0,0,0,39.77,52.89Z" transform="translate(69.19 40.03)"/><path class="cls-4" d="M51.14,52.89a1,1,0,1,0-1-1A1,1,0,0,0,51.14,52.89Z" transform="translate(69.19 40.03)"/><path class="cls-4" d="M62.5,52.89a1,1,0,1,0-1-1A1,1,0,0,0,62.5,52.89Z" transform="translate(69.19 40.03)"/><path class="cls-4" d="M73.87,52.89a1,1,0,1,0-1-1A1,1,0,0,0,73.87,52.89Z" transform="translate(69.19 40.03)"/><path class="cls-4" d="M85.23,52.89a1,1,0,1,0-1-1A1,1,0,0,0,85.23,52.89Z" transform="translate(69.19 40.03)"/><path class="cls-4" d="M96.59,52.89a1,1,0,1,0-1-1A1,1,0,0,0,96.59,52.89Z" transform="translate(69.19 40.03)"/><path class="cls-4" d="M108,52.89a1,1,0,1,0-1-1A1,1,0,0,0,108,52.89Z" transform="translate(69.19 40.03)"/><path class="cls-4" d="M119.32,52.89a1,1,0,1,0-1-1A1,1,0,0,0,119.32,52.89Z" transform="translate(69.19 40.03)"/><path class="cls-4" d="M130.68,52.89a1,1,0,1,0-1-1A1,1,0,0,0,130.68,52.89Z" transform="translate(69.19 40.03)"/><path class="cls-4" d="M142.05,52.89a1,1,0,1,0-1-1A1,1,0,0,0,142.05,52.89Z" transform="translate(69.19 40.03)"/><path class="cls-4" d="M153.41,52.89a1,1,0,1,0-1-1A1,1,0,0,0,153.41,52.89Z" transform="translate(69.19 40.03)"/><path class="cls-4" d="M164.78,52.89a1,1,0,1,0-1-1A1,1,0,0,0,164.78,52.89Z" transform="translate(69.19 40.03)"/><path class="cls-4" d="M176.14,52.89a1,1,0,1,0-1-1A1,1,0,0,0,176.14,52.89Z" transform="translate(69.19 40.03)"/><path class="cls-4" d="M-68.18,64.26a1,1,0,0,0,1-1,1,1,0,0,0-1-1,1,1,0,0,0-1,1A1,1,0,0,0-68.18,64.26Z" transform="translate(69.19 40.03)"/><path class="cls-4" d="M-56.82,64.26a1,1,0,0,0,1-1,1,1,0,0,0-1-1,1,1,0,0,0-1,1A1,1,0,0,0-56.82,64.26Z" transform="translate(69.19 40.03)"/><path class="cls-4" d="M-45.46,64.26a1,1,0,0,0,1-1,1,1,0,0,0-1-1,1,1,0,0,0-1,1A1,1,0,0,0-45.46,64.26Z" transform="translate(69.19 40.03)"/><path class="cls-4" d="M-34.09,64.26a1,1,0,0,0,1-1,1,1,0,0,0-1-1,1,1,0,0,0-1,1A1,1,0,0,0-34.09,64.26Z" transform="translate(69.19 40.03)"/><path class="cls-4" d="M-22.73,64.26a1,1,0,0,0,1-1,1,1,0,0,0-1-1,1,1,0,0,0-1,1A1,1,0,0,0-22.73,64.26Z" transform="translate(69.19 40.03)"/><path class="cls-4" d="M-11.36,64.26a1,1,0,0,0,1-1,1,1,0,0,0-1-1,1,1,0,0,0-1,1A1,1,0,0,0-11.36,64.26Z" transform="translate(69.19 40.03)"/><path class="cls-4" d="M0,64.26a1,1,0,0,0,0-2,1,1,0,0,0-1,1A1,1,0,0,0,0,64.26Z" transform="translate(69.19 40.03)"/><path class="cls-4" d="M11.36,64.26a1,1,0,1,0-1-1A1,1,0,0,0,11.36,64.26Z" transform="translate(69.19 40.03)"/><path class="cls-4" d="M22.73,64.26a1,1,0,1,0-1-1A1,1,0,0,0,22.73,64.26Z" transform="translate(69.19 40.03)"/><path class="cls-4" d="M34.09,64.26a1,1,0,1,0-1-1A1,1,0,0,0,34.09,64.26Z" transform="translate(69.19 40.03)"/><path class="cls-4" d="M45.46,64.26a1,1,0,1,0-1-1A1,1,0,0,0,45.46,64.26Z" transform="translate(69.19 40.03)"/><path class="cls-4" d="M56.82,64.26a1,1,0,1,0-1-1A1,1,0,0,0,56.82,64.26Z" transform="translate(69.19 40.03)"/><path class="cls-4" d="M68.18,64.26a1,1,0,1,0-1-1A1,1,0,0,0,68.18,64.26Z" transform="translate(69.19 40.03)"/><path class="cls-4" d="M79.55,64.26a1,1,0,1,0-1-1A1,1,0,0,0,79.55,64.26Z" transform="translate(69.19 40.03)"/><path class="cls-4" d="M90.91,64.26a1,1,0,1,0-1-1A1,1,0,0,0,90.91,64.26Z" transform="translate(69.19 40.03)"/><path class="cls-4" d="M102.28,64.26a1,1,0,1,0-1-1A1,1,0,0,0,102.28,64.26Z" transform="translate(69.19 40.03)"/><path class="cls-4" d="M113.64,64.26a1,1,0,1,0-1-1A1,1,0,0,0,113.64,64.26Z" transform="translate(69.19 40.03)"/><path class="cls-4" d="M125,64.26a1,1,0,1,0-1-1A1,1,0,0,0,125,64.26Z" transform="translate(69.19 40.03)"/><path class="cls-4" d="M136.37,64.26a1,1,0,1,0-1-1A1,1,0,0,0,136.37,64.26Z" transform="translate(69.19 40.03)"/><path class="cls-4" d="M147.73,64.26a1,1,0,1,0-1-1A1,1,0,0,0,147.73,64.26Z" transform="translate(69.19 40.03)"/><path class="cls-4" d="M159.09,64.26a1,1,0,1,0-1-1A1,1,0,0,0,159.09,64.26Z" transform="translate(69.19 40.03)"/><path class="cls-4" d="M170.46,64.26a1,1,0,1,0-1-1A1,1,0,0,0,170.46,64.26Z" transform="translate(69.19 40.03)"/><path class="cls-4" d="M-62.5,75.62a1,1,0,0,0,1-1,1,1,0,0,0-1-1,1,1,0,0,0-1,1A1,1,0,0,0-62.5,75.62Z" transform="translate(69.19 40.03)"/><path class="cls-4" d="M-51.14,75.62a1,1,0,0,0,1-1,1,1,0,0,0-1-1,1,1,0,0,0-1,1A1,1,0,0,0-51.14,75.62Z" transform="translate(69.19 40.03)"/><path class="cls-4" d="M-39.77,75.62a1,1,0,0,0,1-1,1,1,0,0,0-1-1,1,1,0,0,0-1,1A1,1,0,0,0-39.77,75.62Z" transform="translate(69.19 40.03)"/><circle class="cls-4" cx="40.78" cy="114.65" r="1.01"/><path class="cls-4" d="M-17,75.62a1,1,0,0,0,1-1,1,1,0,0,0-1-1,1,1,0,0,0-1,1A1,1,0,0,0-17,75.62Z" transform="translate(69.19 40.03)"/><path class="cls-4" d="M-5.68,75.62a1,1,0,0,0,1-1,1,1,0,0,0-1-1,1,1,0,0,0-1,1A1,1,0,0,0-5.68,75.62Z" transform="translate(69.19 40.03)"/><path class="cls-4" d="M5.68,75.62a1,1,0,1,0-1-1A1,1,0,0,0,5.68,75.62Z" transform="translate(69.19 40.03)"/><path class="cls-4" d="M17.05,75.62a1,1,0,1,0-1-1A1,1,0,0,0,17.05,75.62Z" transform="translate(69.19 40.03)"/><circle class="cls-4" cx="97.6" cy="114.65" r="1.01"/><path class="cls-4" d="M39.77,75.62a1,1,0,1,0-1-1A1,1,0,0,0,39.77,75.62Z" transform="translate(69.19 40.03)"/><path class="cls-4" d="M51.14,75.62a1,1,0,1,0-1-1A1,1,0,0,0,51.14,75.62Z" transform="translate(69.19 40.03)"/><path class="cls-4" d="M62.5,75.62a1,1,0,1,0-1-1A1,1,0,0,0,62.5,75.62Z" transform="translate(69.19 40.03)"/><path class="cls-4" d="M73.87,75.62a1,1,0,1,0-1-1A1,1,0,0,0,73.87,75.62Z" transform="translate(69.19 40.03)"/><circle class="cls-4" cx="154.42" cy="114.65" r="1.01"/><path class="cls-4" d="M96.59,75.62a1,1,0,1,0-1-1A1,1,0,0,0,96.59,75.62Z" transform="translate(69.19 40.03)"/><path class="cls-4" d="M108,75.62a1,1,0,1,0-1-1A1,1,0,0,0,108,75.62Z" transform="translate(69.19 40.03)"/><path class="cls-4" d="M119.32,75.62a1,1,0,1,0-1-1A1,1,0,0,0,119.32,75.62Z" transform="translate(69.19 40.03)"/><path class="cls-4" d="M130.68,75.62a1,1,0,1,0-1-1A1,1,0,0,0,130.68,75.62Z" transform="translate(69.19 40.03)"/><circle class="cls-4" cx="211.24" cy="114.65" r="1.01"/><path class="cls-4" d="M153.41,75.62a1,1,0,1,0-1-1A1,1,0,0,0,153.41,75.62Z" transform="translate(69.19 40.03)"/><path class="cls-4" d="M164.78,75.62a1,1,0,1,0-1-1A1,1,0,0,0,164.78,75.62Z" transform="translate(69.19 40.03)"/><path class="cls-4" d="M176.14,75.62a1,1,0,1,0-1-1A1,1,0,0,0,176.14,75.62Z" transform="translate(69.19 40.03)"/><path class="cls-4" d="M-68.18,87a1,1,0,0,0,1-1,1,1,0,0,0-1-1,1,1,0,0,0-1,1A1,1,0,0,0-68.18,87Z" transform="translate(69.19 40.03)"/><circle class="cls-4" cx="12.37" cy="126.01" r="1.01"/><path class="cls-4" d="M-45.46,87a1,1,0,0,0,1-1,1,1,0,0,0-1-1,1,1,0,0,0-1,1A1,1,0,0,0-45.46,87Z" transform="translate(69.19 40.03)"/><path class="cls-4" d="M-34.09,87a1,1,0,0,0,1-1,1,1,0,0,0-1-1,1,1,0,0,0-1,1A1,1,0,0,0-34.09,87Z" transform="translate(69.19 40.03)"/><path class="cls-4" d="M-22.73,87a1,1,0,0,0,1-1,1,1,0,0,0-1-1,1,1,0,0,0-1,1A1,1,0,0,0-22.73,87Z" transform="translate(69.19 40.03)"/><path class="cls-4" d="M-11.36,87a1,1,0,0,0,1-1,1,1,0,0,0-1-1,1,1,0,0,0-1,1A1,1,0,0,0-11.36,87Z" transform="translate(69.19 40.03)"/><circle class="cls-4" cx="69.19" cy="126.01" r="1.01"/><path class="cls-4" d="M11.36,87a1,1,0,1,0-1-1A1,1,0,0,0,11.36,87Z" transform="translate(69.19 40.03)"/><path class="cls-4" d="M22.73,87a1,1,0,0,0,0-2,1,1,0,1,0,0,2Z" transform="translate(69.19 40.03)"/><path class="cls-4" d="M34.09,87a1,1,0,1,0-1-1A1,1,0,0,0,34.09,87Z" transform="translate(69.19 40.03)"/><path class="cls-4" d="M45.46,87a1,1,0,1,0-1-1A1,1,0,0,0,45.46,87Z" transform="translate(69.19 40.03)"/><circle class="cls-4" cx="126.01" cy="126.01" r="1.01"/><path class="cls-4" d="M68.18,87a1,1,0,1,0-1-1A1,1,0,0,0,68.18,87Z" transform="translate(69.19 40.03)"/><path class="cls-4" d="M79.55,87a1,1,0,0,0,0-2,1,1,0,0,0,0,2Z" transform="translate(69.19 40.03)"/><path class="cls-4" d="M90.91,87a1,1,0,1,0-1-1A1,1,0,0,0,90.91,87Z" transform="translate(69.19 40.03)"/><path class="cls-4" d="M102.28,87a1,1,0,1,0-1-1A1,1,0,0,0,102.28,87Z" transform="translate(69.19 40.03)"/><circle class="cls-4" cx="182.83" cy="126.01" r="1.01"/><path class="cls-4" d="M125,87a1,1,0,1,0-1-1A1,1,0,0,0,125,87Z" transform="translate(69.19 40.03)"/><path class="cls-4" d="M136.37,87a1,1,0,0,0,0-2,1,1,0,0,0,0,2Z" transform="translate(69.19 40.03)"/><path class="cls-4" d="M147.73,87a1,1,0,1,0-1-1A1,1,0,0,0,147.73,87Z" transform="translate(69.19 40.03)"/><path class="cls-4" d="M159.09,87a1,1,0,1,0-1-1A1,1,0,0,0,159.09,87Z" transform="translate(69.19 40.03)"/><circle class="cls-4" cx="239.65" cy="126.01" r="1.01"/><path class="cls-4" d="M-62.5,98.35a1,1,0,0,0,1-1,1,1,0,0,0-1-1,1,1,0,0,0-1,1A1,1,0,0,0-62.5,98.35Z" transform="translate(69.19 40.03)"/><path class="cls-4" d="M-51.14,98.35a1,1,0,0,0,1-1,1,1,0,0,0-1-1,1,1,0,0,0-1,1A1,1,0,0,0-51.14,98.35Z" transform="translate(69.19 40.03)"/><path class="cls-4" d="M-39.77,98.35a1,1,0,0,0,1-1,1,1,0,0,0-1-1,1,1,0,0,0-1,1A1,1,0,0,0-39.77,98.35Z" transform="translate(69.19 40.03)"/><path class="cls-4" d="M-28.41,98.35a1,1,0,0,0,1-1,1,1,0,0,0-1-1,1,1,0,0,0-1,1A1,1,0,0,0-28.41,98.35Z" transform="translate(69.19 40.03)"/><path class="cls-4" d="M-17,98.35a1,1,0,0,0,1-1,1,1,0,0,0-1-1,1,1,0,0,0-1,1A1,1,0,0,0-17,98.35Z" transform="translate(69.19 40.03)"/><path class="cls-4" d="M-5.68,98.35a1,1,0,0,0,1-1,1,1,0,0,0-1-1,1,1,0,0,0-1,1A1,1,0,0,0-5.68,98.35Z" transform="translate(69.19 40.03)"/><path class="cls-4" d="M5.68,98.35a1,1,0,1,0-1-1A1,1,0,0,0,5.68,98.35Z" transform="translate(69.19 40.03)"/><path class="cls-4" d="M17.05,98.35a1,1,0,1,0-1-1A1,1,0,0,0,17.05,98.35Z" transform="translate(69.19 40.03)"/><path class="cls-4" d="M28.41,98.35a1,1,0,1,0-1-1A1,1,0,0,0,28.41,98.35Z" transform="translate(69.19 40.03)"/><path class="cls-4" d="M39.77,98.35a1,1,0,1,0-1-1A1,1,0,0,0,39.77,98.35Z" transform="translate(69.19 40.03)"/><path class="cls-4" d="M51.14,98.35a1,1,0,1,0-1-1A1,1,0,0,0,51.14,98.35Z" transform="translate(69.19 40.03)"/><path class="cls-4" d="M62.5,98.35a1,1,0,1,0-1-1A1,1,0,0,0,62.5,98.35Z" transform="translate(69.19 40.03)"/><path class="cls-4" d="M73.87,98.35a1,1,0,1,0-1-1A1,1,0,0,0,73.87,98.35Z" transform="translate(69.19 40.03)"/><path class="cls-4" d="M85.23,98.35a1,1,0,1,0-1-1A1,1,0,0,0,85.23,98.35Z" transform="translate(69.19 40.03)"/><path class="cls-4" d="M96.59,98.35a1,1,0,1,0-1-1A1,1,0,0,0,96.59,98.35Z" transform="translate(69.19 40.03)"/><path class="cls-4" d="M108,98.35a1,1,0,1,0-1-1A1,1,0,0,0,108,98.35Z" transform="translate(69.19 40.03)"/><path class="cls-4" d="M119.32,98.35a1,1,0,1,0-1-1A1,1,0,0,0,119.32,98.35Z" transform="translate(69.19 40.03)"/><path class="cls-4" d="M130.68,98.35a1,1,0,1,0-1-1A1,1,0,0,0,130.68,98.35Z" transform="translate(69.19 40.03)"/><path class="cls-4" d="M142.05,98.35a1,1,0,1,0-1-1A1,1,0,0,0,142.05,98.35Z" transform="translate(69.19 40.03)"/><path class="cls-4" d="M153.41,98.35a1,1,0,1,0-1-1A1,1,0,0,0,153.41,98.35Z" transform="translate(69.19 40.03)"/><path class="cls-4" d="M164.78,98.35a1,1,0,1,0-1-1A1,1,0,0,0,164.78,98.35Z" transform="translate(69.19 40.03)"/><path class="cls-4" d="M176.14,98.35a1,1,0,1,0-1-1A1,1,0,0,0,176.14,98.35Z" transform="translate(69.19 40.03)"/><path class="cls-4" d="M-68.18,109.71a1,1,0,0,0,1-1,1,1,0,0,0-1-1,1,1,0,0,0-1,1A1,1,0,0,0-68.18,109.71Z" transform="translate(69.19 40.03)"/><path class="cls-4" d="M-56.82,109.71a1,1,0,0,0,1-1,1,1,0,0,0-1-1,1,1,0,0,0-1,1A1,1,0,0,0-56.82,109.71Z" transform="translate(69.19 40.03)"/><path class="cls-4" d="M-45.46,109.71a1,1,0,0,0,1-1,1,1,0,0,0-1-1,1,1,0,0,0-1,1A1,1,0,0,0-45.46,109.71Z" transform="translate(69.19 40.03)"/><path class="cls-4" d="M-34.09,109.71a1,1,0,0,0,1-1,1,1,0,0,0-1-1,1,1,0,0,0-1,1A1,1,0,0,0-34.09,109.71Z" transform="translate(69.19 40.03)"/><path class="cls-4" d="M-22.73,109.71a1,1,0,0,0,1-1,1,1,0,0,0-1-1,1,1,0,0,0-1,1A1,1,0,0,0-22.73,109.71Z" transform="translate(69.19 40.03)"/><path class="cls-4" d="M-11.36,109.71a1,1,0,0,0,1-1,1,1,0,0,0-1-1,1,1,0,0,0-1,1A1,1,0,0,0-11.36,109.71Z" transform="translate(69.19 40.03)"/><path class="cls-4" d="M0,109.71a1,1,0,0,0,1-1,1,1,0,0,0-1-1,1,1,0,0,0-1,1A1,1,0,0,0,0,109.71Z" transform="translate(69.19 40.03)"/><path class="cls-4" d="M11.36,109.71a1,1,0,1,0-1-1A1,1,0,0,0,11.36,109.71Z" transform="translate(69.19 40.03)"/><path class="cls-4" d="M22.73,109.71a1,1,0,1,0-1-1A1,1,0,0,0,22.73,109.71Z" transform="translate(69.19 40.03)"/><path class="cls-4" d="M34.09,109.71a1,1,0,1,0-1-1A1,1,0,0,0,34.09,109.71Z" transform="translate(69.19 40.03)"/><path class="cls-4" d="M45.46,109.71a1,1,0,1,0-1-1A1,1,0,0,0,45.46,109.71Z" transform="translate(69.19 40.03)"/><path class="cls-4" d="M56.82,109.71a1,1,0,1,0-1-1A1,1,0,0,0,56.82,109.71Z" transform="translate(69.19 40.03)"/><path class="cls-4" d="M68.18,109.71a1,1,0,1,0-1-1A1,1,0,0,0,68.18,109.71Z" transform="translate(69.19 40.03)"/><path class="cls-4" d="M79.55,109.71a1,1,0,1,0-1-1A1,1,0,0,0,79.55,109.71Z" transform="translate(69.19 40.03)"/><path class="cls-4" d="M90.91,109.71a1,1,0,1,0-1-1A1,1,0,0,0,90.91,109.71Z" transform="translate(69.19 40.03)"/><path class="cls-4" d="M102.28,109.71a1,1,0,1,0-1-1A1,1,0,0,0,102.28,109.71Z" transform="translate(69.19 40.03)"/><path class="cls-4" d="M113.64,109.71a1,1,0,1,0-1-1A1,1,0,0,0,113.64,109.71Z" transform="translate(69.19 40.03)"/><path class="cls-4" d="M125,109.71a1,1,0,1,0-1-1A1,1,0,0,0,125,109.71Z" transform="translate(69.19 40.03)"/><path class="cls-4" d="M136.37,109.71a1,1,0,1,0-1-1A1,1,0,0,0,136.37,109.71Z" transform="translate(69.19 40.03)"/><path class="cls-4" d="M147.73,109.71a1,1,0,1,0-1-1A1,1,0,0,0,147.73,109.71Z" transform="translate(69.19 40.03)"/><path class="cls-4" d="M159.09,109.71a1,1,0,1,0-1-1A1,1,0,0,0,159.09,109.71Z" transform="translate(69.19 40.03)"/><path class="cls-4" d="M170.46,109.71a1,1,0,1,0-1-1A1,1,0,0,0,170.46,109.71Z" transform="translate(69.19 40.03)"/><path class="cls-4" d="M-62.5,121.08a1,1,0,0,0,1-1,1,1,0,0,0-1-1,1,1,0,0,0-1,1A1,1,0,0,0-62.5,121.08Z" transform="translate(69.19 40.03)"/><path class="cls-4" d="M-51.14,121.08a1,1,0,0,0,1-1,1,1,0,0,0-1-1,1,1,0,0,0-1,1A1,1,0,0,0-51.14,121.08Z" transform="translate(69.19 40.03)"/><path class="cls-4" d="M-39.77,121.08a1,1,0,0,0,1-1,1,1,0,0,0-1-1,1,1,0,0,0-1,1A1,1,0,0,0-39.77,121.08Z" transform="translate(69.19 40.03)"/><path class="cls-4" d="M-28.41,121.08a1,1,0,0,0,1-1,1,1,0,0,0-1-1,1,1,0,0,0-1,1A1,1,0,0,0-28.41,121.08Z" transform="translate(69.19 40.03)"/><path class="cls-4" d="M-17,121.08a1,1,0,0,0,1-1,1,1,0,0,0-1-1,1,1,0,0,0-1,1A1,1,0,0,0-17,121.08Z" transform="translate(69.19 40.03)"/><path class="cls-4" d="M-5.68,121.08a1,1,0,0,0,1-1,1,1,0,0,0-1-1,1,1,0,0,0-1,1A1,1,0,0,0-5.68,121.08Z" transform="translate(69.19 40.03)"/><path class="cls-4" d="M5.68,121.08a1,1,0,1,0-1-1A1,1,0,0,0,5.68,121.08Z" transform="translate(69.19 40.03)"/><path class="cls-4" d="M17.05,121.08a1,1,0,1,0-1-1A1,1,0,0,0,17.05,121.08Z" transform="translate(69.19 40.03)"/><path class="cls-4" d="M28.41,121.08a1,1,0,1,0-1-1A1,1,0,0,0,28.41,121.08Z" transform="translate(69.19 40.03)"/><path class="cls-4" d="M39.77,121.08a1,1,0,1,0-1-1A1,1,0,0,0,39.77,121.08Z" transform="translate(69.19 40.03)"/><path class="cls-4" d="M51.14,121.08a1,1,0,1,0-1-1A1,1,0,0,0,51.14,121.08Z" transform="translate(69.19 40.03)"/><path class="cls-4" d="M62.5,121.08a1,1,0,1,0-1-1A1,1,0,0,0,62.5,121.08Z" transform="translate(69.19 40.03)"/><path class="cls-4" d="M73.87,121.08a1,1,0,1,0-1-1A1,1,0,0,0,73.87,121.08Z" transform="translate(69.19 40.03)"/><path class="cls-4" d="M85.23,121.08a1,1,0,1,0-1-1A1,1,0,0,0,85.23,121.08Z" transform="translate(69.19 40.03)"/><path class="cls-4" d="M96.59,121.08a1,1,0,1,0-1-1A1,1,0,0,0,96.59,121.08Z" transform="translate(69.19 40.03)"/><path class="cls-4" d="M108,121.08a1,1,0,1,0-1-1A1,1,0,0,0,108,121.08Z" transform="translate(69.19 40.03)"/><path class="cls-4" d="M119.32,121.08a1,1,0,1,0-1-1A1,1,0,0,0,119.32,121.08Z" transform="translate(69.19 40.03)"/><path class="cls-4" d="M130.68,121.08a1,1,0,1,0-1-1A1,1,0,0,0,130.68,121.08Z" transform="translate(69.19 40.03)"/><path class="cls-4" d="M142.05,121.08a1,1,0,1,0-1-1A1,1,0,0,0,142.05,121.08Z" transform="translate(69.19 40.03)"/><path class="cls-4" d="M153.41,121.08a1,1,0,1,0-1-1A1,1,0,0,0,153.41,121.08Z" transform="translate(69.19 40.03)"/><path class="cls-4" d="M164.78,121.08a1,1,0,1,0-1-1A1,1,0,0,0,164.78,121.08Z" transform="translate(69.19 40.03)"/><path class="cls-4" d="M176.14,121.08a1,1,0,1,0-1-1A1,1,0,0,0,176.14,121.08Z" transform="translate(69.19 40.03)"/><path class="cls-4" d="M-68.18,132.44a1,1,0,0,0,1-1,1,1,0,0,0-1-1,1,1,0,0,0-1,1A1,1,0,0,0-68.18,132.44Z" transform="translate(69.19 40.03)"/><circle class="cls-4" cx="12.37" cy="171.47" r="1.01"/><path class="cls-4" d="M-45.46,132.44a1,1,0,0,0,1-1,1,1,0,0,0-1-1,1,1,0,0,0-1,1A1,1,0,0,0-45.46,132.44Z" transform="translate(69.19 40.03)"/><path class="cls-4" d="M-34.09,132.44a1,1,0,0,0,1-1,1,1,0,0,0-1-1,1,1,0,0,0-1,1A1,1,0,0,0-34.09,132.44Z" transform="translate(69.19 40.03)"/><path class="cls-4" d="M-22.73,132.44a1,1,0,0,0,1-1,1,1,0,0,0-1-1,1,1,0,0,0-1,1A1,1,0,0,0-22.73,132.44Z" transform="translate(69.19 40.03)"/><path class="cls-4" d="M-11.36,132.44a1,1,0,0,0,1-1,1,1,0,0,0-1-1,1,1,0,0,0-1,1A1,1,0,0,0-11.36,132.44Z" transform="translate(69.19 40.03)"/><circle class="cls-4" cx="69.19" cy="171.47" r="1.01"/><path class="cls-4" d="M11.36,132.44a1,1,0,1,0-1-1A1,1,0,0,0,11.36,132.44Z" transform="translate(69.19 40.03)"/><path class="cls-4" d="M22.73,132.44a1,1,0,1,0-1-1A1,1,0,0,0,22.73,132.44Z" transform="translate(69.19 40.03)"/><path class="cls-4" d="M34.09,132.44a1,1,0,1,0-1-1A1,1,0,0,0,34.09,132.44Z" transform="translate(69.19 40.03)"/><path class="cls-4" d="M45.46,132.44a1,1,0,1,0-1-1A1,1,0,0,0,45.46,132.44Z" transform="translate(69.19 40.03)"/><circle class="cls-4" cx="126.01" cy="171.47" r="1.01"/><path class="cls-4" d="M68.18,132.44a1,1,0,1,0-1-1A1,1,0,0,0,68.18,132.44Z" transform="translate(69.19 40.03)"/><path class="cls-4" d="M79.55,132.44a1,1,0,1,0-1-1A1,1,0,0,0,79.55,132.44Z" transform="translate(69.19 40.03)"/><path class="cls-4" d="M90.91,132.44a1,1,0,1,0-1-1A1,1,0,0,0,90.91,132.44Z" transform="translate(69.19 40.03)"/><path class="cls-4" d="M102.28,132.44a1,1,0,1,0-1-1A1,1,0,0,0,102.28,132.44Z" transform="translate(69.19 40.03)"/><circle class="cls-4" cx="182.83" cy="171.47" r="1.01"/><path class="cls-4" d="M125,132.44a1,1,0,0,0,0-2,1,1,0,0,0,0,2Z" transform="translate(69.19 40.03)"/><path class="cls-4" d="M136.37,132.44a1,1,0,1,0-1-1A1,1,0,0,0,136.37,132.44Z" transform="translate(69.19 40.03)"/><path class="cls-4" d="M147.73,132.44a1,1,0,1,0-1-1A1,1,0,0,0,147.73,132.44Z" transform="translate(69.19 40.03)"/><path class="cls-4" d="M159.09,132.44a1,1,0,1,0-1-1A1,1,0,0,0,159.09,132.44Z" transform="translate(69.19 40.03)"/><circle class="cls-4" cx="239.65" cy="171.47" r="1.01"/><path class="cls-4" d="M-62.5,143.81a1,1,0,0,0,1-1,1,1,0,0,0-1-1,1,1,0,0,0-1,1A1,1,0,0,0-62.5,143.81Z" transform="translate(69.19 40.03)"/><path class="cls-4" d="M-51.14,143.81a1,1,0,0,0,1-1,1,1,0,0,0-1-1,1,1,0,0,0-1,1A1,1,0,0,0-51.14,143.81Z" transform="translate(69.19 40.03)"/><path class="cls-4" d="M-39.77,143.81a1,1,0,0,0,1-1,1,1,0,0,0-1-1,1,1,0,0,0-1,1A1,1,0,0,0-39.77,143.81Z" transform="translate(69.19 40.03)"/><circle class="cls-4" cx="40.78" cy="182.83" r="1.01"/><path class="cls-4" d="M-17,143.81a1,1,0,0,0,1-1,1,1,0,0,0-1-1,1,1,0,0,0-1,1A1,1,0,0,0-17,143.81Z" transform="translate(69.19 40.03)"/><path class="cls-4" d="M-5.68,143.81a1,1,0,0,0,1-1,1,1,0,0,0-1-1,1,1,0,0,0-1,1A1,1,0,0,0-5.68,143.81Z" transform="translate(69.19 40.03)"/><path class="cls-4" d="M5.68,143.81a1,1,0,1,0-1-1A1,1,0,0,0,5.68,143.81Z" transform="translate(69.19 40.03)"/><path class="cls-4" d="M17.05,143.81a1,1,0,1,0-1-1A1,1,0,0,0,17.05,143.81Z" transform="translate(69.19 40.03)"/><circle class="cls-4" cx="97.6" cy="182.83" r="1.01"/><path class="cls-4" d="M39.77,143.81a1,1,0,1,0-1-1A1,1,0,0,0,39.77,143.81Z" transform="translate(69.19 40.03)"/><path class="cls-4" d="M51.14,143.81a1,1,0,0,0,0-2,1,1,0,0,0,0,2Z" transform="translate(69.19 40.03)"/><path class="cls-4" d="M62.5,143.81a1,1,0,1,0-1-1A1,1,0,0,0,62.5,143.81Z" transform="translate(69.19 40.03)"/><path class="cls-4" d="M73.87,143.81a1,1,0,1,0-1-1A1,1,0,0,0,73.87,143.81Z" transform="translate(69.19 40.03)"/><circle class="cls-4" cx="154.42" cy="182.83" r="1.01"/><path class="cls-4" d="M96.59,143.81a1,1,0,1,0-1-1A1,1,0,0,0,96.59,143.81Z" transform="translate(69.19 40.03)"/><path class="cls-4" d="M108,143.81a1,1,0,0,0,0-2,1,1,0,0,0,0,2Z" transform="translate(69.19 40.03)"/><path class="cls-4" d="M119.32,143.81a1,1,0,1,0-1-1A1,1,0,0,0,119.32,143.81Z" transform="translate(69.19 40.03)"/><path class="cls-4" d="M130.68,143.81a1,1,0,1,0-1-1A1,1,0,0,0,130.68,143.81Z" transform="translate(69.19 40.03)"/><circle class="cls-4" cx="211.24" cy="182.83" r="1.01"/><path class="cls-4" d="M153.41,143.81a1,1,0,1,0-1-1A1,1,0,0,0,153.41,143.81Z" transform="translate(69.19 40.03)"/><path class="cls-4" d="M164.78,143.81a1,1,0,0,0,0-2,1,1,0,0,0,0,2Z" transform="translate(69.19 40.03)"/><path class="cls-4" d="M176.14,143.81a1,1,0,1,0-1-1A1,1,0,0,0,176.14,143.81Z" transform="translate(69.19 40.03)"/><path class="cls-4" d="M-68.18,155.17a1,1,0,0,0,1-1,1,1,0,0,0-1-1,1,1,0,0,0-1,1A1,1,0,0,0-68.18,155.17Z" transform="translate(69.19 40.03)"/><path class="cls-4" d="M-56.82,155.17a1,1,0,0,0,1-1,1,1,0,0,0-1-1,1,1,0,0,0-1,1A1,1,0,0,0-56.82,155.17Z" transform="translate(69.19 40.03)"/><path class="cls-4" d="M-45.46,155.17a1,1,0,0,0,1-1,1,1,0,0,0-1-1,1,1,0,0,0-1,1A1,1,0,0,0-45.46,155.17Z" transform="translate(69.19 40.03)"/><path class="cls-4" d="M-34.09,155.17a1,1,0,0,0,1-1,1,1,0,0,0-1-1,1,1,0,0,0-1,1A1,1,0,0,0-34.09,155.17Z" transform="translate(69.19 40.03)"/><path class="cls-4" d="M-22.73,155.17a1,1,0,0,0,1-1,1,1,0,0,0-1-1,1,1,0,0,0-1,1A1,1,0,0,0-22.73,155.17Z" transform="translate(69.19 40.03)"/><path class="cls-4" d="M-11.36,155.17a1,1,0,0,0,1-1,1,1,0,0,0-1-1,1,1,0,0,0-1,1A1,1,0,0,0-11.36,155.17Z" transform="translate(69.19 40.03)"/><path class="cls-4" d="M0,155.17a1,1,0,0,0,0-2,1,1,0,0,0-1,1A1,1,0,0,0,0,155.17Z" transform="translate(69.19 40.03)"/><path class="cls-4" d="M11.36,155.17a1,1,0,1,0-1-1A1,1,0,0,0,11.36,155.17Z" transform="translate(69.19 40.03)"/><path class="cls-4" d="M22.73,155.17a1,1,0,1,0-1-1A1,1,0,0,0,22.73,155.17Z" transform="translate(69.19 40.03)"/><path class="cls-4" d="M34.09,155.17a1,1,0,1,0-1-1A1,1,0,0,0,34.09,155.17Z" transform="translate(69.19 40.03)"/><path class="cls-4" d="M45.46,155.17a1,1,0,1,0-1-1A1,1,0,0,0,45.46,155.17Z" transform="translate(69.19 40.03)"/><path class="cls-4" d="M56.82,155.17a1,1,0,1,0-1-1A1,1,0,0,0,56.82,155.17Z" transform="translate(69.19 40.03)"/><path class="cls-4" d="M68.18,155.17a1,1,0,1,0-1-1A1,1,0,0,0,68.18,155.17Z" transform="translate(69.19 40.03)"/><path class="cls-4" d="M79.55,155.17a1,1,0,1,0-1-1A1,1,0,0,0,79.55,155.17Z" transform="translate(69.19 40.03)"/><path class="cls-4" d="M90.91,155.17a1,1,0,1,0-1-1A1,1,0,0,0,90.91,155.17Z" transform="translate(69.19 40.03)"/><path class="cls-4" d="M102.28,155.17a1,1,0,1,0-1-1A1,1,0,0,0,102.28,155.17Z" transform="translate(69.19 40.03)"/><path class="cls-4" d="M113.64,155.17a1,1,0,1,0-1-1A1,1,0,0,0,113.64,155.17Z" transform="translate(69.19 40.03)"/><path class="cls-4" d="M125,155.17a1,1,0,1,0-1-1A1,1,0,0,0,125,155.17Z" transform="translate(69.19 40.03)"/><path class="cls-4" d="M136.37,155.17a1,1,0,1,0-1-1A1,1,0,0,0,136.37,155.17Z" transform="translate(69.19 40.03)"/><path class="cls-4" d="M147.73,155.17a1,1,0,1,0-1-1A1,1,0,0,0,147.73,155.17Z" transform="translate(69.19 40.03)"/><path class="cls-4" d="M159.09,155.17a1,1,0,1,0-1-1A1,1,0,0,0,159.09,155.17Z" transform="translate(69.19 40.03)"/><path class="cls-4" d="M170.46,155.17a1,1,0,1,0-1-1A1,1,0,0,0,170.46,155.17Z" transform="translate(69.19 40.03)"/><path class="cls-4" d="M-62.5,166.53a1,1,0,0,0,1-1,1,1,0,0,0-1-1,1,1,0,0,0-1,1A1,1,0,0,0-62.5,166.53Z" transform="translate(69.19 40.03)"/><path class="cls-4" d="M-51.14,166.53a1,1,0,0,0,1-1,1,1,0,0,0-1-1,1,1,0,0,0-1,1A1,1,0,0,0-51.14,166.53Z" transform="translate(69.19 40.03)"/><path class="cls-4" d="M-39.77,166.53a1,1,0,0,0,1-1,1,1,0,0,0-1-1,1,1,0,0,0-1,1A1,1,0,0,0-39.77,166.53Z" transform="translate(69.19 40.03)"/><path class="cls-4" d="M-28.41,166.53a1,1,0,0,0,1-1,1,1,0,0,0-1-1,1,1,0,0,0-1,1A1,1,0,0,0-28.41,166.53Z" transform="translate(69.19 40.03)"/><path class="cls-4" d="M-17,166.53a1,1,0,0,0,1-1,1,1,0,0,0-1-1,1,1,0,0,0-1,1A1,1,0,0,0-17,166.53Z" transform="translate(69.19 40.03)"/><path class="cls-4" d="M-5.68,166.53a1,1,0,0,0,1-1,1,1,0,0,0-1-1,1,1,0,0,0-1,1A1,1,0,0,0-5.68,166.53Z" transform="translate(69.19 40.03)"/><path class="cls-4" d="M5.68,166.53a1,1,0,1,0-1-1A1,1,0,0,0,5.68,166.53Z" transform="translate(69.19 40.03)"/><path class="cls-4" d="M17.05,166.53a1,1,0,1,0-1-1A1,1,0,0,0,17.05,166.53Z" transform="translate(69.19 40.03)"/><path class="cls-4" d="M28.41,166.53a1,1,0,1,0-1-1A1,1,0,0,0,28.41,166.53Z" transform="translate(69.19 40.03)"/><path class="cls-4" d="M39.77,166.53a1,1,0,1,0-1-1A1,1,0,0,0,39.77,166.53Z" transform="translate(69.19 40.03)"/><path class="cls-4" d="M51.14,166.53a1,1,0,1,0-1-1A1,1,0,0,0,51.14,166.53Z" transform="translate(69.19 40.03)"/><path class="cls-4" d="M62.5,166.53a1,1,0,1,0-1-1A1,1,0,0,0,62.5,166.53Z" transform="translate(69.19 40.03)"/><path class="cls-4" d="M73.87,166.53a1,1,0,1,0-1-1A1,1,0,0,0,73.87,166.53Z" transform="translate(69.19 40.03)"/><path class="cls-4" d="M85.23,166.53a1,1,0,1,0-1-1A1,1,0,0,0,85.23,166.53Z" transform="translate(69.19 40.03)"/><path class="cls-4" d="M96.59,166.53a1,1,0,1,0-1-1A1,1,0,0,0,96.59,166.53Z" transform="translate(69.19 40.03)"/><path class="cls-4" d="M108,166.53a1,1,0,1,0-1-1A1,1,0,0,0,108,166.53Z" transform="translate(69.19 40.03)"/><path class="cls-4" d="M119.32,166.53a1,1,0,1,0-1-1A1,1,0,0,0,119.32,166.53Z" transform="translate(69.19 40.03)"/><path class="cls-4" d="M130.68,166.53a1,1,0,1,0-1-1A1,1,0,0,0,130.68,166.53Z" transform="translate(69.19 40.03)"/><path class="cls-4" d="M142.05,166.53a1,1,0,1,0-1-1A1,1,0,0,0,142.05,166.53Z" transform="translate(69.19 40.03)"/><path class="cls-4" d="M153.41,166.53a1,1,0,1,0-1-1A1,1,0,0,0,153.41,166.53Z" transform="translate(69.19 40.03)"/><path class="cls-4" d="M164.78,166.53a1,1,0,1,0-1-1A1,1,0,0,0,164.78,166.53Z" transform="translate(69.19 40.03)"/><path class="cls-4" d="M176.14,166.53a1,1,0,1,0-1-1A1,1,0,0,0,176.14,166.53Z" transform="translate(69.19 40.03)"/><path class="cls-4" d="M-68.18,177.9a1,1,0,0,0,1-1,1,1,0,0,0-1-1,1,1,0,0,0-1,1A1,1,0,0,0-68.18,177.9Z" transform="translate(69.19 40.03)"/><path class="cls-4" d="M-56.82,177.9a1,1,0,0,0,1-1,1,1,0,0,0-1-1,1,1,0,0,0-1,1A1,1,0,0,0-56.82,177.9Z" transform="translate(69.19 40.03)"/><path class="cls-4" d="M-45.46,177.9a1,1,0,0,0,1-1,1,1,0,0,0-1-1,1,1,0,0,0-1,1A1,1,0,0,0-45.46,177.9Z" transform="translate(69.19 40.03)"/><path class="cls-4" d="M-34.09,177.9a1,1,0,0,0,1-1,1,1,0,0,0-1-1,1,1,0,0,0-1,1A1,1,0,0,0-34.09,177.9Z" transform="translate(69.19 40.03)"/><path class="cls-4" d="M-22.73,177.9a1,1,0,0,0,1-1,1,1,0,0,0-1-1,1,1,0,0,0-1,1A1,1,0,0,0-22.73,177.9Z" transform="translate(69.19 40.03)"/><path class="cls-4" d="M-11.36,177.9a1,1,0,0,0,1-1,1,1,0,0,0-1-1,1,1,0,0,0-1,1A1,1,0,0,0-11.36,177.9Z" transform="translate(69.19 40.03)"/><path class="cls-4" d="M0,177.9a1,1,0,0,0,0-2,1,1,0,0,0-1,1A1,1,0,0,0,0,177.9Z" transform="translate(69.19 40.03)"/><path class="cls-4" d="M11.36,177.9a1,1,0,1,0-1-1A1,1,0,0,0,11.36,177.9Z" transform="translate(69.19 40.03)"/><path class="cls-4" d="M22.73,177.9a1,1,0,1,0-1-1A1,1,0,0,0,22.73,177.9Z" transform="translate(69.19 40.03)"/><path class="cls-4" d="M34.09,177.9a1,1,0,1,0-1-1A1,1,0,0,0,34.09,177.9Z" transform="translate(69.19 40.03)"/><path class="cls-4" d="M45.46,177.9a1,1,0,1,0-1-1A1,1,0,0,0,45.46,177.9Z" transform="translate(69.19 40.03)"/><path class="cls-4" d="M56.82,177.9a1,1,0,1,0-1-1A1,1,0,0,0,56.82,177.9Z" transform="translate(69.19 40.03)"/><path class="cls-4" d="M68.18,177.9a1,1,0,1,0-1-1A1,1,0,0,0,68.18,177.9Z" transform="translate(69.19 40.03)"/><path class="cls-4" d="M79.55,177.9a1,1,0,1,0-1-1A1,1,0,0,0,79.55,177.9Z" transform="translate(69.19 40.03)"/><path class="cls-4" d="M90.91,177.9a1,1,0,1,0-1-1A1,1,0,0,0,90.91,177.9Z" transform="translate(69.19 40.03)"/><path class="cls-4" d="M102.28,177.9a1,1,0,1,0-1-1A1,1,0,0,0,102.28,177.9Z" transform="translate(69.19 40.03)"/><path class="cls-4" d="M113.64,177.9a1,1,0,1,0-1-1A1,1,0,0,0,113.64,177.9Z" transform="translate(69.19 40.03)"/><path class="cls-4" d="M125,177.9a1,1,0,1,0-1-1A1,1,0,0,0,125,177.9Z" transform="translate(69.19 40.03)"/><path class="cls-4" d="M136.37,177.9a1,1,0,1,0-1-1A1,1,0,0,0,136.37,177.9Z" transform="translate(69.19 40.03)"/><path class="cls-4" d="M147.73,177.9a1,1,0,1,0-1-1A1,1,0,0,0,147.73,177.9Z" transform="translate(69.19 40.03)"/><path class="cls-4" d="M159.09,177.9a1,1,0,1,0-1-1A1,1,0,0,0,159.09,177.9Z" transform="translate(69.19 40.03)"/><path class="cls-4" d="M170.46,177.9a1,1,0,1,0-1-1A1,1,0,0,0,170.46,177.9Z" transform="translate(69.19 40.03)"/><path class="cls-4" d="M-62.5,189.26a1,1,0,0,0,1-1,1,1,0,0,0-1-1,1,1,0,0,0-1,1A1,1,0,0,0-62.5,189.26Z" transform="translate(69.19 40.03)"/><path class="cls-4" d="M-51.14,189.26a1,1,0,0,0,1-1,1,1,0,0,0-1-1,1,1,0,0,0-1,1A1,1,0,0,0-51.14,189.26Z" transform="translate(69.19 40.03)"/><path class="cls-4" d="M-39.77,189.26a1,1,0,0,0,1-1,1,1,0,0,0-1-1,1,1,0,0,0-1,1A1,1,0,0,0-39.77,189.26Z" transform="translate(69.19 40.03)"/><circle class="cls-4" cx="40.78" cy="228.29" r="1.01"/><path class="cls-4" d="M-17,189.26a1,1,0,0,0,1-1,1,1,0,0,0-1-1,1,1,0,0,0-1,1A1,1,0,0,0-17,189.26Z" transform="translate(69.19 40.03)"/><path class="cls-4" d="M-5.68,189.26a1,1,0,0,0,1-1,1,1,0,0,0-1-1,1,1,0,0,0-1,1A1,1,0,0,0-5.68,189.26Z" transform="translate(69.19 40.03)"/><path class="cls-4" d="M5.68,189.26a1,1,0,1,0-1-1A1,1,0,0,0,5.68,189.26Z" transform="translate(69.19 40.03)"/><path class="cls-4" d="M17.05,189.26a1,1,0,1,0-1-1A1,1,0,0,0,17.05,189.26Z" transform="translate(69.19 40.03)"/><circle class="cls-4" cx="97.6" cy="228.29" r="1.01"/><path class="cls-4" d="M39.77,189.26a1,1,0,1,0-1-1A1,1,0,0,0,39.77,189.26Z" transform="translate(69.19 40.03)"/><path class="cls-4" d="M51.14,189.26a1,1,0,1,0-1-1A1,1,0,0,0,51.14,189.26Z" transform="translate(69.19 40.03)"/><path class="cls-4" d="M62.5,189.26a1,1,0,1,0-1-1A1,1,0,0,0,62.5,189.26Z" transform="translate(69.19 40.03)"/><path class="cls-4" d="M73.87,189.26a1,1,0,1,0-1-1A1,1,0,0,0,73.87,189.26Z" transform="translate(69.19 40.03)"/><circle class="cls-4" cx="154.42" cy="228.29" r="1.01"/><path class="cls-4" d="M96.59,189.26a1,1,0,1,0-1-1A1,1,0,0,0,96.59,189.26Z" transform="translate(69.19 40.03)"/><path class="cls-4" d="M108,189.26a1,1,0,1,0-1-1A1,1,0,0,0,108,189.26Z" transform="translate(69.19 40.03)"/><path class="cls-4" d="M119.32,189.26a1,1,0,1,0-1-1A1,1,0,0,0,119.32,189.26Z" transform="translate(69.19 40.03)"/><path class="cls-4" d="M130.68,189.26a1,1,0,1,0-1-1A1,1,0,0,0,130.68,189.26Z" transform="translate(69.19 40.03)"/><circle class="cls-4" cx="211.24" cy="228.29" r="1.01"/><path class="cls-4" d="M153.41,189.26a1,1,0,0,0,0-2,1,1,0,1,0,0,2Z" transform="translate(69.19 40.03)"/><path class="cls-4" d="M164.78,189.26a1,1,0,1,0-1-1A1,1,0,0,0,164.78,189.26Z" transform="translate(69.19 40.03)"/><path class="cls-4" d="M176.14,189.26a1,1,0,1,0-1-1A1,1,0,0,0,176.14,189.26Z" transform="translate(69.19 40.03)"/><path class="cls-4" d="M-68.18,200.63a1,1,0,0,0,1-1,1,1,0,0,0-1-1,1,1,0,0,0-1,1A1,1,0,0,0-68.18,200.63Z" transform="translate(69.19 40.03)"/><circle class="cls-4" cx="12.37" cy="239.65" r="1.01"/><path class="cls-4" d="M-45.46,200.63a1,1,0,0,0,1-1,1,1,0,0,0-1-1,1,1,0,0,0-1,1A1,1,0,0,0-45.46,200.63Z" transform="translate(69.19 40.03)"/><path class="cls-4" d="M-34.09,200.63a1,1,0,0,0,1-1,1,1,0,0,0-1-1,1,1,0,0,0-1,1A1,1,0,0,0-34.09,200.63Z" transform="translate(69.19 40.03)"/><path class="cls-4" d="M-22.73,200.63a1,1,0,0,0,1-1,1,1,0,0,0-1-1,1,1,0,0,0-1,1A1,1,0,0,0-22.73,200.63Z" transform="translate(69.19 40.03)"/><path class="cls-4" d="M-11.36,200.63a1,1,0,0,0,1-1,1,1,0,0,0-1-1,1,1,0,0,0-1,1A1,1,0,0,0-11.36,200.63Z" transform="translate(69.19 40.03)"/><circle class="cls-4" cx="69.19" cy="239.65" r="1.01"/><path class="cls-4" d="M11.36,200.63a1,1,0,1,0-1-1A1,1,0,0,0,11.36,200.63Z" transform="translate(69.19 40.03)"/><path class="cls-4" d="M22.73,200.63a1,1,0,1,0,0-2,1,1,0,0,0,0,2Z" transform="translate(69.19 40.03)"/><path class="cls-4" d="M34.09,200.63a1,1,0,1,0-1-1A1,1,0,0,0,34.09,200.63Z" transform="translate(69.19 40.03)"/><path class="cls-4" d="M45.46,200.63a1,1,0,1,0-1-1A1,1,0,0,0,45.46,200.63Z" transform="translate(69.19 40.03)"/><circle class="cls-4" cx="126.01" cy="239.65" r="1.01"/><path class="cls-4" d="M68.18,200.63a1,1,0,1,0-1-1A1,1,0,0,0,68.18,200.63Z" transform="translate(69.19 40.03)"/><path class="cls-4" d="M79.55,200.63a1,1,0,1,0,0-2,1,1,0,0,0,0,2Z" transform="translate(69.19 40.03)"/><path class="cls-4" d="M90.91,200.63a1,1,0,1,0-1-1A1,1,0,0,0,90.91,200.63Z" transform="translate(69.19 40.03)"/><path class="cls-4" d="M102.28,200.63a1,1,0,1,0-1-1A1,1,0,0,0,102.28,200.63Z" transform="translate(69.19 40.03)"/><circle class="cls-4" cx="182.83" cy="239.65" r="1.01"/><path class="cls-4" d="M125,200.63a1,1,0,1,0-1-1A1,1,0,0,0,125,200.63Z" transform="translate(69.19 40.03)"/><path class="cls-4" d="M136.37,200.63a1,1,0,0,0,0-2,1,1,0,0,0,0,2Z" transform="translate(69.19 40.03)"/><path class="cls-4" d="M147.73,200.63a1,1,0,1,0-1-1A1,1,0,0,0,147.73,200.63Z" transform="translate(69.19 40.03)"/><path class="cls-4" d="M159.09,200.63a1,1,0,1,0-1-1A1,1,0,0,0,159.09,200.63Z" transform="translate(69.19 40.03)"/><circle class="cls-4" cx="239.65" cy="239.65" r="1.01"/></g></g></svg>