<svg xmlns="http://www.w3.org/2000/svg" viewBox="0 0 384.39 458.11"><defs><style>.cls-1{opacity:0.08;}.cls-2{fill:#444;}.cls-10,.cls-2,.cls-3,.cls-4,.cls-6,.cls-7,.cls-9{fill-rule:evenodd;}.cls-3,.cls-5{fill:#222;}.cls-4{fill:#fff;}.cls-6,.cls-8{fill:#555;}.cls-7{fill:#777;}.cls-11,.cls-9{fill:#888;}.cls-10{fill:#aaa;}.cls-12{opacity:0.25;}</style></defs><title>books</title><g id="Calque_3" data-name="Calque 3"><ellipse class="cls-1" cx="259.96" cy="305.62" rx="183.27" ry="145.58" transform="translate(-226.43 415.88) rotate(-69.57)"/></g><g id="Calque_4" data-name="Calque 4"><path class="cls-2" d="M157.05,92.26V424.54c5.37-12.63,10.23-14.3,22.73-14.3H429V69.53H179.78a22.8,22.8,0,0,0-22.73,22.73Z" transform="translate(-109.24 -26.65)"/><path class="cls-3" d="M170.39,436.92H429V410.24H170.39a13.38,13.38,0,0,0-13.34,13.34h0A13.38,13.38,0,0,0,170.39,436.92Z" transform="translate(-109.24 -26.65)"/><path class="cls-4" d="M170.39,433.8H429V413.36H170.39a10.22,10.22,0,0,0,0,20.44Z" transform="translate(-109.24 -26.65)"/><rect class="cls-5" x="70.54" y="42.88" width="10.78" height="340.71"/><path class="cls-6" d="M198.71,381.79l214.74-22.36-4.08-39.18L194.63,342.61a19.76,19.76,0,0,0-17.55,21.63h0A19.76,19.76,0,0,0,198.71,381.79Z" transform="translate(-109.24 -26.65)"/><path class="cls-4" d="M198.24,377.22,413,354.86l-3.12-30L195.11,347.19a15.1,15.1,0,1,0,3.13,30Z" transform="translate(-109.24 -26.65)"/><path class="cls-7" d="M146.51,70.64l30.57,293.6a19.76,19.76,0,0,1,17.55-21.63l214.74-22.36C398.15,212.54,390,134.36,378.8,26.65L164.06,49a19.76,19.76,0,0,0-17.55,21.63Z" transform="translate(-109.24 -26.65)"/><rect class="cls-8" x="179.56" y="47.72" width="9.34" height="299.23" transform="translate(-128.65 -6.55) rotate(-5.93)"/><path class="cls-9" d="M282.6,409.29l211-45.61-8.33-38.5-211,45.61a19.75,19.75,0,0,0-15.09,23.41h0A19.75,19.75,0,0,0,282.6,409.29Z" transform="translate(-109.24 -26.65)"/><path class="cls-4" d="M281.63,404.8l211-45.62-6.37-29.5-211,45.61a15.1,15.1,0,0,0,6.38,29.51Z" transform="translate(-109.24 -26.65)"/><path class="cls-10" d="M196.83,105.68,259.19,394.2a19.75,19.75,0,0,1,15.09-23.41l211-45.61C462.42,219.33,445.82,142.5,422.94,36.65l-211,45.61a19.76,19.76,0,0,0-15.09,23.42Z" transform="translate(-109.24 -26.65)"/><rect class="cls-11" x="243.48" y="77.89" width="9.34" height="299.79" transform="translate(-151.76 30.9) rotate(-12.19)"/><g class="cls-12"><polygon class="cls-4" points="155.66 129.74 303.99 98.15 310.26 127.18 161.93 158.77 155.66 129.74"/><polygon class="cls-4" points="165.07 170.95 313.4 139.36 319.68 168.38 171.34 199.97 165.07 170.95"/><polygon class="cls-4" points="177.62 231.34 325.95 199.75 328.12 209.77 179.79 241.36 177.62 231.34"/><polygon class="cls-4" points="181.95 251.38 330.28 219.79 332.45 229.81 184.12 261.4 181.95 251.38"/></g></g></svg>