<svg xmlns="http://www.w3.org/2000/svg" xmlns:xlink="http://www.w3.org/1999/xlink" viewBox="0 0 312.16 304.96"><defs><style>.cls-1{fill:none;clip-rule:evenodd;}.cls-2{opacity:0.35;}.cls-3{clip-path:url(#clip-path);}.cls-4{fill:#444;}</style><clipPath id="clip-path" transform="translate(3.11 54.57)"><path class="cls-1" d="M227.74-38.1c-8.43,1.78-21.74,11.77-24.67,13.37q-26.46,14.51-52.89,29C112.14,25.22,4.34,77.56,1,88.29c-4.45,14.42,223.71,149,230.57,145.86a5.33,5.33,0,0,0,2-1.64,7.13,7.13,0,0,0,1.27-4.29.49.49,0,0,1,0-.12c0-4.22,0-8.44,0-12.66V182.37q0-23,0-46.05V84.7q0-24.9,0-49.79V-5.63c0-8,0-15.94,0-23.9,0-1.13,0-2.25,0-3.38,0-5-2.95-6.08-7.07-5.19"/></clipPath></defs><title>search-left-graphic</title><g id="Calque_4" data-name="Calque 4" class="cls-2"><g class="cls-3"><path class="cls-4" d="M5.37-52a1.28,1.28,0,0,0,1.28-1.28,1.28,1.28,0,0,0-1.28-1.28,1.28,1.28,0,0,0-1.28,1.28A1.28,1.28,0,0,0,5.37-52Z" transform="translate(3.11 54.57)"/><path class="cls-4" d="M19.77-52a1.28,1.28,0,0,0,1.28-1.28,1.28,1.28,0,0,0-1.28-1.28,1.28,1.28,0,0,0-1.28,1.28A1.28,1.28,0,0,0,19.77-52Z" transform="translate(3.11 54.57)"/><path class="cls-4" d="M34.17-52a1.28,1.28,0,0,0,1.28-1.28,1.28,1.28,0,0,0-1.28-1.28,1.28,1.28,0,0,0-1.28,1.28A1.28,1.28,0,0,0,34.17-52Z" transform="translate(3.11 54.57)"/><circle class="cls-4" cx="51.68" cy="1.28" r="1.28"/><path class="cls-4" d="M63-52a1.28,1.28,0,0,0,1.28-1.28A1.28,1.28,0,0,0,63-54.57a1.28,1.28,0,0,0-1.28,1.28A1.28,1.28,0,0,0,63-52Z" transform="translate(3.11 54.57)"/><path class="cls-4" d="M293.37-52a1.28,1.28,0,0,0,1.28-1.28,1.28,1.28,0,0,0-1.28-1.28,1.28,1.28,0,0,0-1.28,1.28A1.28,1.28,0,0,0,293.37-52Z" transform="translate(3.11 54.57)"/><path class="cls-4" d="M307.77-52a1.28,1.28,0,0,0,1.28-1.28,1.28,1.28,0,0,0-1.28-1.28,1.28,1.28,0,0,0-1.28,1.28A1.28,1.28,0,0,0,307.77-52Z" transform="translate(3.11 54.57)"/><path class="cls-4" d="M-1.83-37.61A1.28,1.28,0,0,0-.55-38.89a1.28,1.28,0,0,0-1.28-1.28,1.28,1.28,0,0,0-1.28,1.28A1.28,1.28,0,0,0-1.83-37.61Z" transform="translate(3.11 54.57)"/><circle class="cls-4" cx="15.68" cy="15.68" r="1.28"/><path class="cls-4" d="M27-37.61a1.28,1.28,0,0,0,1.28-1.28A1.28,1.28,0,0,0,27-40.17a1.28,1.28,0,0,0-1.28,1.28A1.28,1.28,0,0,0,27-37.61Z" transform="translate(3.11 54.57)"/><path class="cls-4" d="M41.37-37.61a1.28,1.28,0,0,0,1.28-1.28,1.28,1.28,0,0,0-1.28-1.28,1.28,1.28,0,0,0-1.28,1.28A1.28,1.28,0,0,0,41.37-37.61Z" transform="translate(3.11 54.57)"/><path class="cls-4" d="M55.77-37.61a1.28,1.28,0,0,0,1.28-1.28,1.28,1.28,0,0,0-1.28-1.28,1.28,1.28,0,0,0-1.28,1.28A1.28,1.28,0,0,0,55.77-37.61Z" transform="translate(3.11 54.57)"/><circle class="cls-4" cx="303.68" cy="15.68" r="1.28"/><path class="cls-4" d="M5.37-23.21a1.28,1.28,0,0,0,1.28-1.28,1.28,1.28,0,0,0-1.28-1.28,1.28,1.28,0,0,0-1.28,1.28A1.28,1.28,0,0,0,5.37-23.21Z" transform="translate(3.11 54.57)"/><path class="cls-4" d="M19.77-23.21a1.28,1.28,0,0,0,1.28-1.28,1.28,1.28,0,0,0-1.28-1.28,1.28,1.28,0,0,0-1.28,1.28A1.28,1.28,0,0,0,19.77-23.21Z" transform="translate(3.11 54.57)"/><path class="cls-4" d="M34.17-23.21a1.28,1.28,0,0,0,1.28-1.28,1.28,1.28,0,0,0-1.28-1.28,1.28,1.28,0,0,0-1.28,1.28A1.28,1.28,0,0,0,34.17-23.21Z" transform="translate(3.11 54.57)"/><path class="cls-4" d="M48.57-23.21a1.28,1.28,0,0,0,1.28-1.28,1.28,1.28,0,0,0-1.28-1.28,1.28,1.28,0,0,0-1.28,1.28A1.28,1.28,0,0,0,48.57-23.21Z" transform="translate(3.11 54.57)"/><path class="cls-4" d="M63-23.21a1.28,1.28,0,0,0,1.28-1.28A1.28,1.28,0,0,0,63-25.77a1.28,1.28,0,0,0-1.28,1.28A1.28,1.28,0,0,0,63-23.21Z" transform="translate(3.11 54.57)"/><path class="cls-4" d="M293.37-23.21a1.28,1.28,0,0,0,1.28-1.28,1.28,1.28,0,0,0-1.28-1.28,1.28,1.28,0,0,0-1.28,1.28A1.28,1.28,0,0,0,293.37-23.21Z" transform="translate(3.11 54.57)"/><path class="cls-4" d="M307.77-23.21a1.28,1.28,0,0,0,1.28-1.28,1.28,1.28,0,0,0-1.28-1.28,1.28,1.28,0,0,0-1.28,1.28A1.28,1.28,0,0,0,307.77-23.21Z" transform="translate(3.11 54.57)"/><path class="cls-4" d="M-1.83-8.81A1.28,1.28,0,0,0-.55-10.09a1.28,1.28,0,0,0-1.28-1.28,1.28,1.28,0,0,0-1.28,1.28A1.28,1.28,0,0,0-1.83-8.81Z" transform="translate(3.11 54.57)"/><path class="cls-4" d="M12.57-8.81a1.28,1.28,0,0,0,1.28-1.28,1.28,1.28,0,0,0-1.28-1.28,1.28,1.28,0,0,0-1.28,1.28A1.28,1.28,0,0,0,12.57-8.81Z" transform="translate(3.11 54.57)"/><path class="cls-4" d="M27-8.81a1.28,1.28,0,0,0,1.28-1.28A1.28,1.28,0,0,0,27-11.37a1.28,1.28,0,0,0-1.28,1.28A1.28,1.28,0,0,0,27-8.81Z" transform="translate(3.11 54.57)"/><path class="cls-4" d="M41.37-8.81a1.28,1.28,0,0,0,1.28-1.28,1.28,1.28,0,0,0-1.28-1.28,1.28,1.28,0,0,0-1.28,1.28A1.28,1.28,0,0,0,41.37-8.81Z" transform="translate(3.11 54.57)"/><path class="cls-4" d="M55.77-8.81a1.28,1.28,0,0,0,1.28-1.28,1.28,1.28,0,0,0-1.28-1.28,1.28,1.28,0,0,0-1.28,1.28A1.28,1.28,0,0,0,55.77-8.81Z" transform="translate(3.11 54.57)"/><path class="cls-4" d="M300.57-8.81a1.28,1.28,0,0,0,1.28-1.28,1.28,1.28,0,0,0-1.28-1.28,1.28,1.28,0,0,0-1.28,1.28A1.28,1.28,0,0,0,300.57-8.81Z" transform="translate(3.11 54.57)"/><path class="cls-4" d="M5.37,5.59A1.28,1.28,0,1,0,4.09,4.31,1.28,1.28,0,0,0,5.37,5.59Z" transform="translate(3.11 54.57)"/><path class="cls-4" d="M19.77,5.59a1.28,1.28,0,1,0-1.28-1.28A1.28,1.28,0,0,0,19.77,5.59Z" transform="translate(3.11 54.57)"/><path class="cls-4" d="M34.17,5.59a1.28,1.28,0,1,0-1.28-1.28A1.28,1.28,0,0,0,34.17,5.59Z" transform="translate(3.11 54.57)"/><path class="cls-4" d="M48.57,5.59a1.28,1.28,0,1,0-1.28-1.28A1.28,1.28,0,0,0,48.57,5.59Z" transform="translate(3.11 54.57)"/><path class="cls-4" d="M63,5.59a1.28,1.28,0,1,0-1.28-1.28A1.28,1.28,0,0,0,63,5.59Z" transform="translate(3.11 54.57)"/><path class="cls-4" d="M293.37,5.59a1.28,1.28,0,1,0-1.28-1.28A1.28,1.28,0,0,0,293.37,5.59Z" transform="translate(3.11 54.57)"/><path class="cls-4" d="M307.77,5.59a1.28,1.28,0,1,0-1.28-1.28A1.28,1.28,0,0,0,307.77,5.59Z" transform="translate(3.11 54.57)"/><path class="cls-4" d="M-1.83,20A1.28,1.28,0,0,0-.55,18.71a1.28,1.28,0,0,0-1.28-1.28,1.28,1.28,0,0,0-1.28,1.28A1.28,1.28,0,0,0-1.83,20Z" transform="translate(3.11 54.57)"/><circle class="cls-4" cx="15.68" cy="73.28" r="1.28"/><path class="cls-4" d="M27,20a1.28,1.28,0,1,0-1.28-1.28A1.28,1.28,0,0,0,27,20Z" transform="translate(3.11 54.57)"/><path class="cls-4" d="M41.37,20a1.28,1.28,0,1,0-1.28-1.28A1.28,1.28,0,0,0,41.37,20Z" transform="translate(3.11 54.57)"/><path class="cls-4" d="M55.77,20a1.28,1.28,0,1,0-1.28-1.28A1.28,1.28,0,0,0,55.77,20Z" transform="translate(3.11 54.57)"/><path class="cls-4" d="M70.17,20a1.28,1.28,0,1,0-1.28-1.28A1.28,1.28,0,0,0,70.17,20Z" transform="translate(3.11 54.57)"/><circle class="cls-4" cx="87.68" cy="73.28" r="1.28"/><path class="cls-4" d="M99,20a1.28,1.28,0,1,0-1.28-1.28A1.28,1.28,0,0,0,99,20Z" transform="translate(3.11 54.57)"/><path class="cls-4" d="M113.37,20a1.28,1.28,0,1,0-1.28-1.28A1.28,1.28,0,0,0,113.37,20Z" transform="translate(3.11 54.57)"/><path class="cls-4" d="M127.77,20a1.28,1.28,0,1,0-1.28-1.28A1.28,1.28,0,0,0,127.77,20Z" transform="translate(3.11 54.57)"/><path class="cls-4" d="M142.17,20a1.28,1.28,0,1,0-1.28-1.28A1.28,1.28,0,0,0,142.17,20Z" transform="translate(3.11 54.57)"/><circle class="cls-4" cx="159.68" cy="73.28" r="1.28"/><path class="cls-4" d="M171,20a1.28,1.28,0,1,0-1.28-1.28A1.28,1.28,0,0,0,171,20Z" transform="translate(3.11 54.57)"/><path class="cls-4" d="M185.37,20a1.28,1.28,0,1,0-1.28-1.28A1.28,1.28,0,0,0,185.37,20Z" transform="translate(3.11 54.57)"/><path class="cls-4" d="M199.77,20a1.28,1.28,0,1,0-1.28-1.28A1.28,1.28,0,0,0,199.77,20Z" transform="translate(3.11 54.57)"/><path class="cls-4" d="M214.17,20a1.28,1.28,0,1,0-1.28-1.28A1.28,1.28,0,0,0,214.17,20Z" transform="translate(3.11 54.57)"/><circle class="cls-4" cx="231.68" cy="73.28" r="1.28"/><path class="cls-4" d="M243,20a1.28,1.28,0,1,0-1.28-1.28A1.28,1.28,0,0,0,243,20Z" transform="translate(3.11 54.57)"/><path class="cls-4" d="M257.37,20a1.28,1.28,0,1,0-1.28-1.28A1.28,1.28,0,0,0,257.37,20Z" transform="translate(3.11 54.57)"/><path class="cls-4" d="M271.77,20a1.28,1.28,0,1,0-1.28-1.28A1.28,1.28,0,0,0,271.77,20Z" transform="translate(3.11 54.57)"/><path class="cls-4" d="M286.17,20a1.28,1.28,0,1,0-1.28-1.28A1.28,1.28,0,0,0,286.17,20Z" transform="translate(3.11 54.57)"/><circle class="cls-4" cx="303.68" cy="73.28" r="1.28"/><path class="cls-4" d="M5.37,34.39a1.28,1.28,0,1,0-1.28-1.28A1.28,1.28,0,0,0,5.37,34.39Z" transform="translate(3.11 54.57)"/><path class="cls-4" d="M19.77,34.39a1.28,1.28,0,1,0-1.28-1.28A1.28,1.28,0,0,0,19.77,34.39Z" transform="translate(3.11 54.57)"/><path class="cls-4" d="M34.17,34.39a1.28,1.28,0,1,0-1.28-1.28A1.28,1.28,0,0,0,34.17,34.39Z" transform="translate(3.11 54.57)"/><circle class="cls-4" cx="51.68" cy="87.68" r="1.28"/><path class="cls-4" d="M63,34.39a1.28,1.28,0,1,0-1.28-1.28A1.28,1.28,0,0,0,63,34.39Z" transform="translate(3.11 54.57)"/><path class="cls-4" d="M77.37,34.39a1.28,1.28,0,1,0-1.28-1.28A1.28,1.28,0,0,0,77.37,34.39Z" transform="translate(3.11 54.57)"/><path class="cls-4" d="M91.77,34.39a1.28,1.28,0,1,0-1.28-1.28A1.28,1.28,0,0,0,91.77,34.39Z" transform="translate(3.11 54.57)"/><path class="cls-4" d="M106.17,34.39a1.28,1.28,0,1,0-1.28-1.28A1.28,1.28,0,0,0,106.17,34.39Z" transform="translate(3.11 54.57)"/><circle class="cls-4" cx="123.68" cy="87.68" r="1.28"/><path class="cls-4" d="M135,34.39a1.28,1.28,0,1,0-1.28-1.28A1.28,1.28,0,0,0,135,34.39Z" transform="translate(3.11 54.57)"/><path class="cls-4" d="M149.37,34.39a1.28,1.28,0,1,0-1.28-1.28A1.28,1.28,0,0,0,149.37,34.39Z" transform="translate(3.11 54.57)"/><path class="cls-4" d="M163.77,34.39a1.28,1.28,0,1,0-1.28-1.28A1.28,1.28,0,0,0,163.77,34.39Z" transform="translate(3.11 54.57)"/><path class="cls-4" d="M178.17,34.39a1.28,1.28,0,1,0-1.28-1.28A1.28,1.28,0,0,0,178.17,34.39Z" transform="translate(3.11 54.57)"/><circle class="cls-4" cx="195.68" cy="87.68" r="1.28"/><path class="cls-4" d="M207,34.39a1.28,1.28,0,1,0-1.28-1.28A1.28,1.28,0,0,0,207,34.39Z" transform="translate(3.11 54.57)"/><path class="cls-4" d="M221.37,34.39a1.28,1.28,0,1,0-1.28-1.28A1.28,1.28,0,0,0,221.37,34.39Z" transform="translate(3.11 54.57)"/><path class="cls-4" d="M235.77,34.39a1.28,1.28,0,1,0-1.28-1.28A1.28,1.28,0,0,0,235.77,34.39Z" transform="translate(3.11 54.57)"/><path class="cls-4" d="M250.17,34.39a1.28,1.28,0,1,0-1.28-1.28A1.28,1.28,0,0,0,250.17,34.39Z" transform="translate(3.11 54.57)"/><circle class="cls-4" cx="267.68" cy="87.68" r="1.28"/><path class="cls-4" d="M279,34.39a1.28,1.28,0,1,0-1.28-1.28A1.28,1.28,0,0,0,279,34.39Z" transform="translate(3.11 54.57)"/><path class="cls-4" d="M293.37,34.39a1.28,1.28,0,1,0-1.28-1.28A1.28,1.28,0,0,0,293.37,34.39Z" transform="translate(3.11 54.57)"/><path class="cls-4" d="M307.77,34.39a1.28,1.28,0,1,0-1.28-1.28A1.28,1.28,0,0,0,307.77,34.39Z" transform="translate(3.11 54.57)"/><path class="cls-4" d="M-1.83,48.79A1.28,1.28,0,0,0-.55,47.51a1.28,1.28,0,0,0-1.28-1.28,1.28,1.28,0,0,0-1.28,1.28A1.28,1.28,0,0,0-1.83,48.79Z" transform="translate(3.11 54.57)"/><path class="cls-4" d="M12.57,48.79a1.28,1.28,0,1,0-1.28-1.28A1.28,1.28,0,0,0,12.57,48.79Z" transform="translate(3.11 54.57)"/><path class="cls-4" d="M27,48.79a1.28,1.28,0,1,0-1.28-1.28A1.28,1.28,0,0,0,27,48.79Z" transform="translate(3.11 54.57)"/><path class="cls-4" d="M41.37,48.79a1.28,1.28,0,1,0-1.28-1.28A1.28,1.28,0,0,0,41.37,48.79Z" transform="translate(3.11 54.57)"/><path class="cls-4" d="M55.77,48.79a1.28,1.28,0,1,0-1.28-1.28A1.28,1.28,0,0,0,55.77,48.79Z" transform="translate(3.11 54.57)"/><path class="cls-4" d="M70.17,48.79a1.28,1.28,0,1,0-1.28-1.28A1.28,1.28,0,0,0,70.17,48.79Z" transform="translate(3.11 54.57)"/><path class="cls-4" d="M84.57,48.79a1.28,1.28,0,1,0-1.28-1.28A1.28,1.28,0,0,0,84.57,48.79Z" transform="translate(3.11 54.57)"/><path class="cls-4" d="M99,48.79a1.28,1.28,0,1,0-1.28-1.28A1.28,1.28,0,0,0,99,48.79Z" transform="translate(3.11 54.57)"/><path class="cls-4" d="M91.53,38.11a1.28,1.28,0,1,0-1.28-1.28A1.28,1.28,0,0,0,91.53,38.11Z" transform="translate(3.11 54.57)"/><path class="cls-4" d="M113.37,48.79a1.28,1.28,0,1,0-1.28-1.28A1.28,1.28,0,0,0,113.37,48.79Z" transform="translate(3.11 54.57)"/><path class="cls-4" d="M127.77,48.79a1.28,1.28,0,1,0-1.28-1.28A1.28,1.28,0,0,0,127.77,48.79Z" transform="translate(3.11 54.57)"/><path class="cls-4" d="M142.17,48.79a1.28,1.28,0,1,0-1.28-1.28A1.28,1.28,0,0,0,142.17,48.79Z" transform="translate(3.11 54.57)"/><path class="cls-4" d="M156.57,48.79a1.28,1.28,0,1,0-1.28-1.28A1.28,1.28,0,0,0,156.57,48.79Z" transform="translate(3.11 54.57)"/><path class="cls-4" d="M171,48.79a1.28,1.28,0,1,0-1.28-1.28A1.28,1.28,0,0,0,171,48.79Z" transform="translate(3.11 54.57)"/><path class="cls-4" d="M185.37,48.79a1.28,1.28,0,1,0-1.28-1.28A1.28,1.28,0,0,0,185.37,48.79Z" transform="translate(3.11 54.57)"/><path class="cls-4" d="M199.77,48.79a1.28,1.28,0,1,0-1.28-1.28A1.28,1.28,0,0,0,199.77,48.79Z" transform="translate(3.11 54.57)"/><path class="cls-4" d="M214.17,48.79a1.28,1.28,0,1,0-1.28-1.28A1.28,1.28,0,0,0,214.17,48.79Z" transform="translate(3.11 54.57)"/><path class="cls-4" d="M228.57,48.79a1.28,1.28,0,1,0-1.28-1.28A1.28,1.28,0,0,0,228.57,48.79Z" transform="translate(3.11 54.57)"/><path class="cls-4" d="M243,48.79a1.28,1.28,0,1,0-1.28-1.28A1.28,1.28,0,0,0,243,48.79Z" transform="translate(3.11 54.57)"/><path class="cls-4" d="M257.37,48.79a1.28,1.28,0,1,0-1.28-1.28A1.28,1.28,0,0,0,257.37,48.79Z" transform="translate(3.11 54.57)"/><path class="cls-4" d="M271.77,48.79a1.28,1.28,0,1,0-1.28-1.28A1.28,1.28,0,0,0,271.77,48.79Z" transform="translate(3.11 54.57)"/><path class="cls-4" d="M286.17,48.79a1.28,1.28,0,1,0-1.28-1.28A1.28,1.28,0,0,0,286.17,48.79Z" transform="translate(3.11 54.57)"/><path class="cls-4" d="M300.57,48.79a1.28,1.28,0,1,0-1.28-1.28A1.28,1.28,0,0,0,300.57,48.79Z" transform="translate(3.11 54.57)"/><path class="cls-4" d="M34.17,63.19a1.28,1.28,0,1,0-1.28-1.28A1.28,1.28,0,0,0,34.17,63.19Z" transform="translate(3.11 54.57)"/><path class="cls-4" d="M48.57,63.19a1.28,1.28,0,1,0-1.28-1.28A1.28,1.28,0,0,0,48.57,63.19Z" transform="translate(3.11 54.57)"/><path class="cls-4" d="M63,63.19a1.28,1.28,0,1,0-1.28-1.28A1.28,1.28,0,0,0,63,63.19Z" transform="translate(3.11 54.57)"/><path class="cls-4" d="M77.37,63.19a1.28,1.28,0,1,0-1.28-1.28A1.28,1.28,0,0,0,77.37,63.19Z" transform="translate(3.11 54.57)"/><path class="cls-4" d="M91.77,63.19a1.28,1.28,0,1,0-1.28-1.28A1.28,1.28,0,0,0,91.77,63.19Z" transform="translate(3.11 54.57)"/><path class="cls-4" d="M106.17,63.19a1.28,1.28,0,1,0-1.28-1.28A1.28,1.28,0,0,0,106.17,63.19Z" transform="translate(3.11 54.57)"/><path class="cls-4" d="M120.57,63.19a1.28,1.28,0,1,0-1.28-1.28A1.28,1.28,0,0,0,120.57,63.19Z" transform="translate(3.11 54.57)"/><path class="cls-4" d="M135,63.19a1.28,1.28,0,1,0-1.28-1.28A1.28,1.28,0,0,0,135,63.19Z" transform="translate(3.11 54.57)"/><path class="cls-4" d="M149.37,63.19a1.28,1.28,0,1,0-1.28-1.28A1.28,1.28,0,0,0,149.37,63.19Z" transform="translate(3.11 54.57)"/><path class="cls-4" d="M163.77,63.19a1.28,1.28,0,1,0-1.28-1.28A1.28,1.28,0,0,0,163.77,63.19Z" transform="translate(3.11 54.57)"/><path class="cls-4" d="M178.17,63.19a1.28,1.28,0,1,0-1.28-1.28A1.28,1.28,0,0,0,178.17,63.19Z" transform="translate(3.11 54.57)"/><path class="cls-4" d="M192.57,63.19a1.28,1.28,0,1,0-1.28-1.28A1.28,1.28,0,0,0,192.57,63.19Z" transform="translate(3.11 54.57)"/><path class="cls-4" d="M207,63.19a1.28,1.28,0,1,0-1.28-1.28A1.28,1.28,0,0,0,207,63.19Z" transform="translate(3.11 54.57)"/><path class="cls-4" d="M221.37,63.19a1.28,1.28,0,1,0-1.28-1.28A1.28,1.28,0,0,0,221.37,63.19Z" transform="translate(3.11 54.57)"/><path class="cls-4" d="M235.77,63.19a1.28,1.28,0,1,0-1.28-1.28A1.28,1.28,0,0,0,235.77,63.19Z" transform="translate(3.11 54.57)"/><path class="cls-4" d="M250.17,63.19a1.28,1.28,0,1,0-1.28-1.28A1.28,1.28,0,0,0,250.17,63.19Z" transform="translate(3.11 54.57)"/><path class="cls-4" d="M264.57,63.19a1.28,1.28,0,1,0-1.28-1.28A1.28,1.28,0,0,0,264.57,63.19Z" transform="translate(3.11 54.57)"/><path class="cls-4" d="M279,63.19a1.28,1.28,0,1,0-1.28-1.28A1.28,1.28,0,0,0,279,63.19Z" transform="translate(3.11 54.57)"/><path class="cls-4" d="M293.37,63.19a1.28,1.28,0,1,0-1.28-1.28A1.28,1.28,0,0,0,293.37,63.19Z" transform="translate(3.11 54.57)"/><path class="cls-4" d="M307.77,63.19a1.28,1.28,0,1,0-1.28-1.28A1.28,1.28,0,0,0,307.77,63.19Z" transform="translate(3.11 54.57)"/><path class="cls-4" d="M41.37,77.59a1.28,1.28,0,1,0-1.28-1.28A1.28,1.28,0,0,0,41.37,77.59Z" transform="translate(3.11 54.57)"/><path class="cls-4" d="M55.77,77.59a1.28,1.28,0,1,0-1.28-1.28A1.28,1.28,0,0,0,55.77,77.59Z" transform="translate(3.11 54.57)"/><path class="cls-4" d="M70.17,77.59a1.28,1.28,0,1,0-1.28-1.28A1.28,1.28,0,0,0,70.17,77.59Z" transform="translate(3.11 54.57)"/><path class="cls-4" d="M84.57,77.59a1.28,1.28,0,1,0-1.28-1.28A1.28,1.28,0,0,0,84.57,77.59Z" transform="translate(3.11 54.57)"/><path class="cls-4" d="M99,77.59a1.28,1.28,0,1,0-1.28-1.28A1.28,1.28,0,0,0,99,77.59Z" transform="translate(3.11 54.57)"/><path class="cls-4" d="M113.37,77.59a1.28,1.28,0,1,0-1.28-1.28A1.28,1.28,0,0,0,113.37,77.59Z" transform="translate(3.11 54.57)"/><path class="cls-4" d="M127.77,77.59a1.28,1.28,0,1,0-1.28-1.28A1.28,1.28,0,0,0,127.77,77.59Z" transform="translate(3.11 54.57)"/><path class="cls-4" d="M142.17,77.59a1.28,1.28,0,1,0-1.28-1.28A1.28,1.28,0,0,0,142.17,77.59Z" transform="translate(3.11 54.57)"/><path class="cls-4" d="M156.57,77.59a1.28,1.28,0,1,0-1.28-1.28A1.28,1.28,0,0,0,156.57,77.59Z" transform="translate(3.11 54.57)"/><path class="cls-4" d="M171,77.59a1.28,1.28,0,1,0-1.28-1.28A1.28,1.28,0,0,0,171,77.59Z" transform="translate(3.11 54.57)"/><path class="cls-4" d="M185.37,77.59a1.28,1.28,0,1,0-1.28-1.28A1.28,1.28,0,0,0,185.37,77.59Z" transform="translate(3.11 54.57)"/><path class="cls-4" d="M199.77,77.59a1.28,1.28,0,1,0-1.28-1.28A1.28,1.28,0,0,0,199.77,77.59Z" transform="translate(3.11 54.57)"/><path class="cls-4" d="M214.17,77.59a1.28,1.28,0,1,0-1.28-1.28A1.28,1.28,0,0,0,214.17,77.59Z" transform="translate(3.11 54.57)"/><path class="cls-4" d="M228.57,77.59a1.28,1.28,0,1,0-1.28-1.28A1.28,1.28,0,0,0,228.57,77.59Z" transform="translate(3.11 54.57)"/><path class="cls-4" d="M243,77.59a1.28,1.28,0,1,0-1.28-1.28A1.28,1.28,0,0,0,243,77.59Z" transform="translate(3.11 54.57)"/><path class="cls-4" d="M257.37,77.59a1.28,1.28,0,1,0-1.28-1.28A1.28,1.28,0,0,0,257.37,77.59Z" transform="translate(3.11 54.57)"/><path class="cls-4" d="M271.77,77.59a1.28,1.28,0,1,0-1.28-1.28A1.28,1.28,0,0,0,271.77,77.59Z" transform="translate(3.11 54.57)"/><path class="cls-4" d="M286.17,77.59a1.28,1.28,0,1,0-1.28-1.28A1.28,1.28,0,0,0,286.17,77.59Z" transform="translate(3.11 54.57)"/><path class="cls-4" d="M300.57,77.59a1.28,1.28,0,1,0-1.28-1.28A1.28,1.28,0,0,0,300.57,77.59Z" transform="translate(3.11 54.57)"/><path class="cls-4" d="M34.17,92a1.28,1.28,0,1,0-1.28-1.28A1.28,1.28,0,0,0,34.17,92Z" transform="translate(3.11 54.57)"/><circle class="cls-4" cx="51.68" cy="145.28" r="1.28"/><path class="cls-4" d="M63,92a1.28,1.28,0,1,0-1.28-1.28A1.28,1.28,0,0,0,63,92Z" transform="translate(3.11 54.57)"/><path class="cls-4" d="M77.37,92a1.28,1.28,0,1,0-1.28-1.28A1.28,1.28,0,0,0,77.37,92Z" transform="translate(3.11 54.57)"/><path class="cls-4" d="M91.77,92a1.28,1.28,0,1,0-1.28-1.28A1.28,1.28,0,0,0,91.77,92Z" transform="translate(3.11 54.57)"/><path class="cls-4" d="M106.17,92a1.28,1.28,0,1,0-1.28-1.28A1.28,1.28,0,0,0,106.17,92Z" transform="translate(3.11 54.57)"/><circle class="cls-4" cx="123.68" cy="145.28" r="1.28"/><path class="cls-4" d="M135,92a1.28,1.28,0,1,0-1.28-1.28A1.28,1.28,0,0,0,135,92Z" transform="translate(3.11 54.57)"/><path class="cls-4" d="M149.37,92a1.28,1.28,0,1,0-1.28-1.28A1.28,1.28,0,0,0,149.37,92Z" transform="translate(3.11 54.57)"/><path class="cls-4" d="M163.77,92a1.28,1.28,0,1,0-1.28-1.28A1.28,1.28,0,0,0,163.77,92Z" transform="translate(3.11 54.57)"/><path class="cls-4" d="M178.17,92a1.28,1.28,0,1,0-1.28-1.28A1.28,1.28,0,0,0,178.17,92Z" transform="translate(3.11 54.57)"/><circle class="cls-4" cx="195.68" cy="145.28" r="1.28"/><path class="cls-4" d="M207,92a1.28,1.28,0,1,0-1.28-1.28A1.28,1.28,0,0,0,207,92Z" transform="translate(3.11 54.57)"/><path class="cls-4" d="M221.37,92a1.28,1.28,0,1,0-1.28-1.28A1.28,1.28,0,0,0,221.37,92Z" transform="translate(3.11 54.57)"/><path class="cls-4" d="M235.77,92a1.28,1.28,0,1,0-1.28-1.28A1.28,1.28,0,0,0,235.77,92Z" transform="translate(3.11 54.57)"/><path class="cls-4" d="M250.17,92a1.28,1.28,0,1,0-1.28-1.28A1.28,1.28,0,0,0,250.17,92Z" transform="translate(3.11 54.57)"/><circle class="cls-4" cx="267.68" cy="145.28" r="1.28"/><path class="cls-4" d="M279,92a1.28,1.28,0,1,0-1.28-1.28A1.28,1.28,0,0,0,279,92Z" transform="translate(3.11 54.57)"/><path class="cls-4" d="M293.37,92a1.28,1.28,0,1,0-1.28-1.28A1.28,1.28,0,0,0,293.37,92Z" transform="translate(3.11 54.57)"/><path class="cls-4" d="M307.77,92a1.28,1.28,0,1,0-1.28-1.28A1.28,1.28,0,0,0,307.77,92Z" transform="translate(3.11 54.57)"/><path class="cls-4" d="M41.37,106.39a1.28,1.28,0,1,0-1.28-1.28A1.28,1.28,0,0,0,41.37,106.39Z" transform="translate(3.11 54.57)"/><path class="cls-4" d="M55.77,106.39a1.28,1.28,0,1,0-1.28-1.28A1.28,1.28,0,0,0,55.77,106.39Z" transform="translate(3.11 54.57)"/><path class="cls-4" d="M70.17,106.39a1.28,1.28,0,1,0-1.28-1.28A1.28,1.28,0,0,0,70.17,106.39Z" transform="translate(3.11 54.57)"/><circle class="cls-4" cx="87.68" cy="159.68" r="1.28"/><path class="cls-4" d="M99,106.39a1.28,1.28,0,1,0-1.28-1.28A1.28,1.28,0,0,0,99,106.39Z" transform="translate(3.11 54.57)"/><path class="cls-4" d="M113.37,106.39a1.28,1.28,0,1,0-1.28-1.28A1.28,1.28,0,0,0,113.37,106.39Z" transform="translate(3.11 54.57)"/><path class="cls-4" d="M127.77,106.39a1.28,1.28,0,1,0-1.28-1.28A1.28,1.28,0,0,0,127.77,106.39Z" transform="translate(3.11 54.57)"/><path class="cls-4" d="M142.17,106.39a1.28,1.28,0,1,0-1.28-1.28A1.28,1.28,0,0,0,142.17,106.39Z" transform="translate(3.11 54.57)"/><circle class="cls-4" cx="159.68" cy="159.68" r="1.28"/><path class="cls-4" d="M171,106.39a1.28,1.28,0,1,0-1.28-1.28A1.28,1.28,0,0,0,171,106.39Z" transform="translate(3.11 54.57)"/><path class="cls-4" d="M185.37,106.39a1.28,1.28,0,1,0-1.28-1.28A1.28,1.28,0,0,0,185.37,106.39Z" transform="translate(3.11 54.57)"/><path class="cls-4" d="M199.77,106.39a1.28,1.28,0,1,0-1.28-1.28A1.28,1.28,0,0,0,199.77,106.39Z" transform="translate(3.11 54.57)"/><path class="cls-4" d="M214.17,106.39a1.28,1.28,0,1,0-1.28-1.28A1.28,1.28,0,0,0,214.17,106.39Z" transform="translate(3.11 54.57)"/><circle class="cls-4" cx="231.68" cy="159.68" r="1.28"/><path class="cls-4" d="M243,106.39a1.28,1.28,0,1,0-1.28-1.28A1.28,1.28,0,0,0,243,106.39Z" transform="translate(3.11 54.57)"/><path class="cls-4" d="M257.37,106.39a1.28,1.28,0,1,0-1.28-1.28A1.28,1.28,0,0,0,257.37,106.39Z" transform="translate(3.11 54.57)"/><path class="cls-4" d="M271.77,106.39a1.28,1.28,0,1,0-1.28-1.28A1.28,1.28,0,0,0,271.77,106.39Z" transform="translate(3.11 54.57)"/><path class="cls-4" d="M286.17,106.39a1.28,1.28,0,1,0-1.28-1.28A1.28,1.28,0,0,0,286.17,106.39Z" transform="translate(3.11 54.57)"/><circle class="cls-4" cx="303.68" cy="159.68" r="1.28"/><path class="cls-4" d="M34.17,120.79a1.28,1.28,0,1,0-1.28-1.28A1.28,1.28,0,0,0,34.17,120.79Z" transform="translate(3.11 54.57)"/><path class="cls-4" d="M48.57,120.79a1.28,1.28,0,1,0-1.28-1.28A1.28,1.28,0,0,0,48.57,120.79Z" transform="translate(3.11 54.57)"/><path class="cls-4" d="M63,120.79a1.28,1.28,0,1,0-1.28-1.28A1.28,1.28,0,0,0,63,120.79Z" transform="translate(3.11 54.57)"/><path class="cls-4" d="M77.37,120.79a1.28,1.28,0,1,0-1.28-1.28A1.28,1.28,0,0,0,77.37,120.79Z" transform="translate(3.11 54.57)"/><path class="cls-4" d="M91.77,120.79a1.28,1.28,0,1,0-1.28-1.28A1.28,1.28,0,0,0,91.77,120.79Z" transform="translate(3.11 54.57)"/><path class="cls-4" d="M106.17,120.79a1.28,1.28,0,1,0-1.28-1.28A1.28,1.28,0,0,0,106.17,120.79Z" transform="translate(3.11 54.57)"/><path class="cls-4" d="M120.57,120.79a1.28,1.28,0,1,0-1.28-1.28A1.28,1.28,0,0,0,120.57,120.79Z" transform="translate(3.11 54.57)"/><path class="cls-4" d="M135,120.79a1.28,1.28,0,1,0-1.28-1.28A1.28,1.28,0,0,0,135,120.79Z" transform="translate(3.11 54.57)"/><path class="cls-4" d="M149.37,120.79a1.28,1.28,0,1,0-1.28-1.28A1.28,1.28,0,0,0,149.37,120.79Z" transform="translate(3.11 54.57)"/><path class="cls-4" d="M163.77,120.79a1.28,1.28,0,1,0-1.28-1.28A1.28,1.28,0,0,0,163.77,120.79Z" transform="translate(3.11 54.57)"/><path class="cls-4" d="M178.17,120.79a1.28,1.28,0,1,0-1.28-1.28A1.28,1.28,0,0,0,178.17,120.79Z" transform="translate(3.11 54.57)"/><path class="cls-4" d="M192.57,120.79a1.28,1.28,0,1,0-1.28-1.28A1.28,1.28,0,0,0,192.57,120.79Z" transform="translate(3.11 54.57)"/><path class="cls-4" d="M207,120.79a1.28,1.28,0,1,0-1.28-1.28A1.28,1.28,0,0,0,207,120.79Z" transform="translate(3.11 54.57)"/><path class="cls-4" d="M221.37,120.79a1.28,1.28,0,1,0-1.28-1.28A1.28,1.28,0,0,0,221.37,120.79Z" transform="translate(3.11 54.57)"/><path class="cls-4" d="M235.77,120.79a1.28,1.28,0,1,0-1.28-1.28A1.28,1.28,0,0,0,235.77,120.79Z" transform="translate(3.11 54.57)"/><path class="cls-4" d="M250.17,120.79a1.28,1.28,0,1,0-1.28-1.28A1.28,1.28,0,0,0,250.17,120.79Z" transform="translate(3.11 54.57)"/><path class="cls-4" d="M264.57,120.79a1.28,1.28,0,1,0-1.28-1.28A1.28,1.28,0,0,0,264.57,120.79Z" transform="translate(3.11 54.57)"/><path class="cls-4" d="M279,120.79a1.28,1.28,0,1,0-1.28-1.28A1.28,1.28,0,0,0,279,120.79Z" transform="translate(3.11 54.57)"/><path class="cls-4" d="M293.37,120.79a1.28,1.28,0,1,0-1.28-1.28A1.28,1.28,0,0,0,293.37,120.79Z" transform="translate(3.11 54.57)"/><path class="cls-4" d="M307.77,120.79a1.28,1.28,0,1,0-1.28-1.28A1.28,1.28,0,0,0,307.77,120.79Z" transform="translate(3.11 54.57)"/><path class="cls-4" d="M-1.83,135.19a1.28,1.28,0,0,0,1.28-1.28,1.28,1.28,0,0,0-1.28-1.28,1.28,1.28,0,0,0-1.28,1.28A1.28,1.28,0,0,0-1.83,135.19Z" transform="translate(3.11 54.57)"/><path class="cls-4" d="M12.57,135.19a1.28,1.28,0,1,0-1.28-1.28A1.28,1.28,0,0,0,12.57,135.19Z" transform="translate(3.11 54.57)"/><path class="cls-4" d="M27,135.19a1.28,1.28,0,1,0-1.28-1.28A1.28,1.28,0,0,0,27,135.19Z" transform="translate(3.11 54.57)"/><path class="cls-4" d="M41.37,135.19a1.28,1.28,0,1,0-1.28-1.28A1.28,1.28,0,0,0,41.37,135.19Z" transform="translate(3.11 54.57)"/><path class="cls-4" d="M55.77,135.19a1.28,1.28,0,1,0-1.28-1.28A1.28,1.28,0,0,0,55.77,135.19Z" transform="translate(3.11 54.57)"/><path class="cls-4" d="M70.17,135.19a1.28,1.28,0,1,0-1.28-1.28A1.28,1.28,0,0,0,70.17,135.19Z" transform="translate(3.11 54.57)"/><path class="cls-4" d="M84.57,135.19a1.28,1.28,0,1,0-1.28-1.28A1.28,1.28,0,0,0,84.57,135.19Z" transform="translate(3.11 54.57)"/><path class="cls-4" d="M99,135.19a1.28,1.28,0,1,0-1.28-1.28A1.28,1.28,0,0,0,99,135.19Z" transform="translate(3.11 54.57)"/><path class="cls-4" d="M113.37,135.19a1.28,1.28,0,1,0-1.28-1.28A1.28,1.28,0,0,0,113.37,135.19Z" transform="translate(3.11 54.57)"/><path class="cls-4" d="M127.77,135.19a1.28,1.28,0,1,0-1.28-1.28A1.28,1.28,0,0,0,127.77,135.19Z" transform="translate(3.11 54.57)"/><path class="cls-4" d="M142.17,135.19a1.28,1.28,0,1,0-1.28-1.28A1.28,1.28,0,0,0,142.17,135.19Z" transform="translate(3.11 54.57)"/><path class="cls-4" d="M156.57,135.19a1.28,1.28,0,1,0-1.28-1.28A1.28,1.28,0,0,0,156.57,135.19Z" transform="translate(3.11 54.57)"/><path class="cls-4" d="M171,135.19a1.28,1.28,0,1,0-1.28-1.28A1.28,1.28,0,0,0,171,135.19Z" transform="translate(3.11 54.57)"/><path class="cls-4" d="M185.37,135.19a1.28,1.28,0,1,0-1.28-1.28A1.28,1.28,0,0,0,185.37,135.19Z" transform="translate(3.11 54.57)"/><path class="cls-4" d="M199.77,135.19a1.28,1.28,0,1,0-1.28-1.28A1.28,1.28,0,0,0,199.77,135.19Z" transform="translate(3.11 54.57)"/><path class="cls-4" d="M214.17,135.19a1.28,1.28,0,1,0-1.28-1.28A1.28,1.28,0,0,0,214.17,135.19Z" transform="translate(3.11 54.57)"/><path class="cls-4" d="M228.57,135.19a1.28,1.28,0,1,0-1.28-1.28A1.28,1.28,0,0,0,228.57,135.19Z" transform="translate(3.11 54.57)"/><path class="cls-4" d="M243,135.19a1.28,1.28,0,1,0-1.28-1.28A1.28,1.28,0,0,0,243,135.19Z" transform="translate(3.11 54.57)"/><path class="cls-4" d="M257.37,135.19a1.28,1.28,0,1,0-1.28-1.28A1.28,1.28,0,0,0,257.37,135.19Z" transform="translate(3.11 54.57)"/><path class="cls-4" d="M271.77,135.19a1.28,1.28,0,1,0-1.28-1.28A1.28,1.28,0,0,0,271.77,135.19Z" transform="translate(3.11 54.57)"/><path class="cls-4" d="M286.17,135.19a1.28,1.28,0,1,0-1.28-1.28A1.28,1.28,0,0,0,286.17,135.19Z" transform="translate(3.11 54.57)"/><path class="cls-4" d="M300.57,135.19a1.28,1.28,0,1,0-1.28-1.28A1.28,1.28,0,0,0,300.57,135.19Z" transform="translate(3.11 54.57)"/><path class="cls-4" d="M5.37,149.59a1.28,1.28,0,1,0-1.28-1.28A1.28,1.28,0,0,0,5.37,149.59Z" transform="translate(3.11 54.57)"/><path class="cls-4" d="M19.77,149.59a1.28,1.28,0,1,0-1.28-1.28A1.28,1.28,0,0,0,19.77,149.59Z" transform="translate(3.11 54.57)"/><path class="cls-4" d="M34.17,149.59a1.28,1.28,0,1,0-1.28-1.28A1.28,1.28,0,0,0,34.17,149.59Z" transform="translate(3.11 54.57)"/><path class="cls-4" d="M48.57,149.59a1.28,1.28,0,1,0-1.28-1.28A1.28,1.28,0,0,0,48.57,149.59Z" transform="translate(3.11 54.57)"/><path class="cls-4" d="M63,149.59a1.28,1.28,0,1,0-1.28-1.28A1.28,1.28,0,0,0,63,149.59Z" transform="translate(3.11 54.57)"/><path class="cls-4" d="M77.37,149.59a1.28,1.28,0,1,0-1.28-1.28A1.28,1.28,0,0,0,77.37,149.59Z" transform="translate(3.11 54.57)"/><path class="cls-4" d="M91.77,149.59a1.28,1.28,0,1,0-1.28-1.28A1.28,1.28,0,0,0,91.77,149.59Z" transform="translate(3.11 54.57)"/><path class="cls-4" d="M106.17,149.59a1.28,1.28,0,1,0-1.28-1.28A1.28,1.28,0,0,0,106.17,149.59Z" transform="translate(3.11 54.57)"/><path class="cls-4" d="M120.57,149.59a1.28,1.28,0,1,0-1.28-1.28A1.28,1.28,0,0,0,120.57,149.59Z" transform="translate(3.11 54.57)"/><path class="cls-4" d="M135,149.59a1.28,1.28,0,1,0-1.28-1.28A1.28,1.28,0,0,0,135,149.59Z" transform="translate(3.11 54.57)"/><path class="cls-4" d="M149.37,149.59a1.28,1.28,0,1,0-1.28-1.28A1.28,1.28,0,0,0,149.37,149.59Z" transform="translate(3.11 54.57)"/><path class="cls-4" d="M163.77,149.59a1.28,1.28,0,1,0-1.28-1.28A1.28,1.28,0,0,0,163.77,149.59Z" transform="translate(3.11 54.57)"/><path class="cls-4" d="M178.17,149.59a1.28,1.28,0,1,0-1.28-1.28A1.28,1.28,0,0,0,178.17,149.59Z" transform="translate(3.11 54.57)"/><path class="cls-4" d="M192.57,149.59a1.28,1.28,0,1,0-1.28-1.28A1.28,1.28,0,0,0,192.57,149.59Z" transform="translate(3.11 54.57)"/><path class="cls-4" d="M207,149.59a1.28,1.28,0,1,0-1.28-1.28A1.28,1.28,0,0,0,207,149.59Z" transform="translate(3.11 54.57)"/><path class="cls-4" d="M221.37,149.59a1.28,1.28,0,1,0-1.28-1.28A1.28,1.28,0,0,0,221.37,149.59Z" transform="translate(3.11 54.57)"/><path class="cls-4" d="M235.77,149.59a1.28,1.28,0,1,0-1.28-1.28A1.28,1.28,0,0,0,235.77,149.59Z" transform="translate(3.11 54.57)"/><path class="cls-4" d="M250.17,149.59a1.28,1.28,0,1,0-1.28-1.28A1.28,1.28,0,0,0,250.17,149.59Z" transform="translate(3.11 54.57)"/><path class="cls-4" d="M264.57,149.59a1.28,1.28,0,1,0-1.28-1.28A1.28,1.28,0,0,0,264.57,149.59Z" transform="translate(3.11 54.57)"/><path class="cls-4" d="M279,149.59a1.28,1.28,0,1,0-1.28-1.28A1.28,1.28,0,0,0,279,149.59Z" transform="translate(3.11 54.57)"/><path class="cls-4" d="M293.37,149.59a1.28,1.28,0,1,0-1.28-1.28A1.28,1.28,0,0,0,293.37,149.59Z" transform="translate(3.11 54.57)"/><path class="cls-4" d="M307.77,149.59a1.28,1.28,0,1,0-1.28-1.28A1.28,1.28,0,0,0,307.77,149.59Z" transform="translate(3.11 54.57)"/><path class="cls-4" d="M-1.83,164a1.28,1.28,0,0,0,1.28-1.28,1.28,1.28,0,0,0-1.28-1.28,1.28,1.28,0,0,0-1.28,1.28A1.28,1.28,0,0,0-1.83,164Z" transform="translate(3.11 54.57)"/><circle class="cls-4" cx="15.68" cy="217.28" r="1.28"/><path class="cls-4" d="M27,164a1.28,1.28,0,1,0-1.28-1.28A1.28,1.28,0,0,0,27,164Z" transform="translate(3.11 54.57)"/><path class="cls-4" d="M41.37,164a1.28,1.28,0,1,0-1.28-1.28A1.28,1.28,0,0,0,41.37,164Z" transform="translate(3.11 54.57)"/><path class="cls-4" d="M55.77,164a1.28,1.28,0,1,0-1.28-1.28A1.28,1.28,0,0,0,55.77,164Z" transform="translate(3.11 54.57)"/><path class="cls-4" d="M70.17,164a1.28,1.28,0,1,0-1.28-1.28A1.28,1.28,0,0,0,70.17,164Z" transform="translate(3.11 54.57)"/><circle class="cls-4" cx="87.68" cy="217.28" r="1.28"/><path class="cls-4" d="M99,164a1.28,1.28,0,1,0-1.28-1.28A1.28,1.28,0,0,0,99,164Z" transform="translate(3.11 54.57)"/><path class="cls-4" d="M113.37,164a1.28,1.28,0,1,0-1.28-1.28A1.28,1.28,0,0,0,113.37,164Z" transform="translate(3.11 54.57)"/><path class="cls-4" d="M127.77,164a1.28,1.28,0,1,0-1.28-1.28A1.28,1.28,0,0,0,127.77,164Z" transform="translate(3.11 54.57)"/><path class="cls-4" d="M142.17,164a1.28,1.28,0,1,0-1.28-1.28A1.28,1.28,0,0,0,142.17,164Z" transform="translate(3.11 54.57)"/><circle class="cls-4" cx="159.68" cy="217.28" r="1.28"/><path class="cls-4" d="M171,164a1.28,1.28,0,1,0-1.28-1.28A1.28,1.28,0,0,0,171,164Z" transform="translate(3.11 54.57)"/><path class="cls-4" d="M185.37,164a1.28,1.28,0,1,0-1.28-1.28A1.28,1.28,0,0,0,185.37,164Z" transform="translate(3.11 54.57)"/><path class="cls-4" d="M199.77,164a1.28,1.28,0,1,0-1.28-1.28A1.28,1.28,0,0,0,199.77,164Z" transform="translate(3.11 54.57)"/><path class="cls-4" d="M214.17,164a1.28,1.28,0,1,0-1.28-1.28A1.28,1.28,0,0,0,214.17,164Z" transform="translate(3.11 54.57)"/><circle class="cls-4" cx="231.68" cy="217.28" r="1.28"/><path class="cls-4" d="M243,164a1.28,1.28,0,1,0-1.28-1.28A1.28,1.28,0,0,0,243,164Z" transform="translate(3.11 54.57)"/><path class="cls-4" d="M257.37,164a1.28,1.28,0,1,0-1.28-1.28A1.28,1.28,0,0,0,257.37,164Z" transform="translate(3.11 54.57)"/><path class="cls-4" d="M271.77,164a1.28,1.28,0,1,0-1.28-1.28A1.28,1.28,0,0,0,271.77,164Z" transform="translate(3.11 54.57)"/><path class="cls-4" d="M286.17,164a1.28,1.28,0,1,0-1.28-1.28A1.28,1.28,0,0,0,286.17,164Z" transform="translate(3.11 54.57)"/><circle class="cls-4" cx="303.68" cy="217.28" r="1.28"/><path class="cls-4" d="M5.37,178.39a1.28,1.28,0,1,0-1.28-1.28A1.28,1.28,0,0,0,5.37,178.39Z" transform="translate(3.11 54.57)"/><path class="cls-4" d="M19.77,178.39a1.28,1.28,0,1,0-1.28-1.28A1.28,1.28,0,0,0,19.77,178.39Z" transform="translate(3.11 54.57)"/><path class="cls-4" d="M34.17,178.39a1.28,1.28,0,1,0-1.28-1.28A1.28,1.28,0,0,0,34.17,178.39Z" transform="translate(3.11 54.57)"/><circle class="cls-4" cx="51.68" cy="231.68" r="1.28"/><path class="cls-4" d="M63,178.39a1.28,1.28,0,1,0-1.28-1.28A1.28,1.28,0,0,0,63,178.39Z" transform="translate(3.11 54.57)"/><path class="cls-4" d="M77.37,178.39a1.28,1.28,0,1,0-1.28-1.28A1.28,1.28,0,0,0,77.37,178.39Z" transform="translate(3.11 54.57)"/><path class="cls-4" d="M91.77,178.39a1.28,1.28,0,1,0-1.28-1.28A1.28,1.28,0,0,0,91.77,178.39Z" transform="translate(3.11 54.57)"/><path class="cls-4" d="M106.17,178.39a1.28,1.28,0,1,0-1.28-1.28A1.28,1.28,0,0,0,106.17,178.39Z" transform="translate(3.11 54.57)"/><path class="cls-4" d="M279,178.39a1.28,1.28,0,1,0-1.28-1.28A1.28,1.28,0,0,0,279,178.39Z" transform="translate(3.11 54.57)"/><path class="cls-4" d="M293.37,178.39a1.28,1.28,0,1,0-1.28-1.28A1.28,1.28,0,0,0,293.37,178.39Z" transform="translate(3.11 54.57)"/><path class="cls-4" d="M307.77,178.39a1.28,1.28,0,1,0-1.28-1.28A1.28,1.28,0,0,0,307.77,178.39Z" transform="translate(3.11 54.57)"/><path class="cls-4" d="M-1.83,192.79a1.28,1.28,0,0,0,1.28-1.28,1.28,1.28,0,0,0-1.28-1.28,1.28,1.28,0,0,0-1.28,1.28A1.28,1.28,0,0,0-1.83,192.79Z" transform="translate(3.11 54.57)"/><path class="cls-4" d="M12.57,192.79a1.28,1.28,0,1,0-1.28-1.28A1.28,1.28,0,0,0,12.57,192.79Z" transform="translate(3.11 54.57)"/><path class="cls-4" d="M27,192.79a1.28,1.28,0,1,0-1.28-1.28A1.28,1.28,0,0,0,27,192.79Z" transform="translate(3.11 54.57)"/><path class="cls-4" d="M41.37,192.79a1.28,1.28,0,1,0-1.28-1.28A1.28,1.28,0,0,0,41.37,192.79Z" transform="translate(3.11 54.57)"/><path class="cls-4" d="M55.77,192.79a1.28,1.28,0,1,0-1.28-1.28A1.28,1.28,0,0,0,55.77,192.79Z" transform="translate(3.11 54.57)"/><path class="cls-4" d="M70.17,192.79a1.28,1.28,0,1,0-1.28-1.28A1.28,1.28,0,0,0,70.17,192.79Z" transform="translate(3.11 54.57)"/><path class="cls-4" d="M84.57,192.79a1.28,1.28,0,1,0-1.28-1.28A1.28,1.28,0,0,0,84.57,192.79Z" transform="translate(3.11 54.57)"/><path class="cls-4" d="M99,192.79a1.28,1.28,0,1,0-1.28-1.28A1.28,1.28,0,0,0,99,192.79Z" transform="translate(3.11 54.57)"/><path class="cls-4" d="M286.17,192.79a1.28,1.28,0,1,0-1.28-1.28A1.28,1.28,0,0,0,286.17,192.79Z" transform="translate(3.11 54.57)"/><path class="cls-4" d="M300.57,192.79a1.28,1.28,0,1,0-1.28-1.28A1.28,1.28,0,0,0,300.57,192.79Z" transform="translate(3.11 54.57)"/><path class="cls-4" d="M5.37,207.19a1.28,1.28,0,1,0-1.28-1.28A1.28,1.28,0,0,0,5.37,207.19Z" transform="translate(3.11 54.57)"/><path class="cls-4" d="M19.77,207.19a1.28,1.28,0,1,0-1.28-1.28A1.28,1.28,0,0,0,19.77,207.19Z" transform="translate(3.11 54.57)"/><path class="cls-4" d="M34.17,207.19a1.28,1.28,0,1,0-1.28-1.28A1.28,1.28,0,0,0,34.17,207.19Z" transform="translate(3.11 54.57)"/><path class="cls-4" d="M48.57,207.19a1.28,1.28,0,1,0-1.28-1.28A1.28,1.28,0,0,0,48.57,207.19Z" transform="translate(3.11 54.57)"/><path class="cls-4" d="M63,207.19a1.28,1.28,0,1,0-1.28-1.28A1.28,1.28,0,0,0,63,207.19Z" transform="translate(3.11 54.57)"/><path class="cls-4" d="M77.37,207.19a1.28,1.28,0,1,0-1.28-1.28A1.28,1.28,0,0,0,77.37,207.19Z" transform="translate(3.11 54.57)"/><path class="cls-4" d="M91.77,207.19a1.28,1.28,0,1,0-1.28-1.28A1.28,1.28,0,0,0,91.77,207.19Z" transform="translate(3.11 54.57)"/><path class="cls-4" d="M106.17,207.19a1.28,1.28,0,1,0-1.28-1.28A1.28,1.28,0,0,0,106.17,207.19Z" transform="translate(3.11 54.57)"/><path class="cls-4" d="M279,207.19a1.28,1.28,0,1,0-1.28-1.28A1.28,1.28,0,0,0,279,207.19Z" transform="translate(3.11 54.57)"/><path class="cls-4" d="M293.37,207.19a1.28,1.28,0,1,0-1.28-1.28A1.28,1.28,0,0,0,293.37,207.19Z" transform="translate(3.11 54.57)"/><path class="cls-4" d="M307.77,207.19a1.28,1.28,0,1,0-1.28-1.28A1.28,1.28,0,0,0,307.77,207.19Z" transform="translate(3.11 54.57)"/><path class="cls-4" d="M-1.83,221.59a1.28,1.28,0,0,0,1.28-1.28A1.28,1.28,0,0,0-1.83,219a1.28,1.28,0,0,0-1.28,1.28A1.28,1.28,0,0,0-1.83,221.59Z" transform="translate(3.11 54.57)"/><path class="cls-4" d="M12.57,221.59a1.28,1.28,0,1,0-1.28-1.28A1.28,1.28,0,0,0,12.57,221.59Z" transform="translate(3.11 54.57)"/><path class="cls-4" d="M27,221.59a1.28,1.28,0,1,0-1.28-1.28A1.28,1.28,0,0,0,27,221.59Z" transform="translate(3.11 54.57)"/><path class="cls-4" d="M41.37,221.59a1.28,1.28,0,1,0-1.28-1.28A1.28,1.28,0,0,0,41.37,221.59Z" transform="translate(3.11 54.57)"/><path class="cls-4" d="M55.77,221.59a1.28,1.28,0,1,0-1.28-1.28A1.28,1.28,0,0,0,55.77,221.59Z" transform="translate(3.11 54.57)"/><path class="cls-4" d="M70.17,221.59a1.28,1.28,0,1,0-1.28-1.28A1.28,1.28,0,0,0,70.17,221.59Z" transform="translate(3.11 54.57)"/><path class="cls-4" d="M84.57,221.59a1.28,1.28,0,1,0-1.28-1.28A1.28,1.28,0,0,0,84.57,221.59Z" transform="translate(3.11 54.57)"/><path class="cls-4" d="M99,221.59a1.28,1.28,0,1,0-1.28-1.28A1.28,1.28,0,0,0,99,221.59Z" transform="translate(3.11 54.57)"/><path class="cls-4" d="M286.17,221.59a1.28,1.28,0,1,0-1.28-1.28A1.28,1.28,0,0,0,286.17,221.59Z" transform="translate(3.11 54.57)"/><path class="cls-4" d="M300.57,221.59a1.28,1.28,0,1,0-1.28-1.28A1.28,1.28,0,0,0,300.57,221.59Z" transform="translate(3.11 54.57)"/><path class="cls-4" d="M5.37,236a1.28,1.28,0,1,0-1.28-1.28A1.28,1.28,0,0,0,5.37,236Z" transform="translate(3.11 54.57)"/><path class="cls-4" d="M19.77,236a1.28,1.28,0,1,0-1.28-1.28A1.28,1.28,0,0,0,19.77,236Z" transform="translate(3.11 54.57)"/><path class="cls-4" d="M34.17,236a1.28,1.28,0,1,0-1.28-1.28A1.28,1.28,0,0,0,34.17,236Z" transform="translate(3.11 54.57)"/><circle class="cls-4" cx="51.68" cy="289.28" r="1.28"/><path class="cls-4" d="M63,236a1.28,1.28,0,1,0-1.28-1.28A1.28,1.28,0,0,0,63,236Z" transform="translate(3.11 54.57)"/><path class="cls-4" d="M77.37,236a1.28,1.28,0,1,0-1.28-1.28A1.28,1.28,0,0,0,77.37,236Z" transform="translate(3.11 54.57)"/><path class="cls-4" d="M91.77,236a1.28,1.28,0,1,0-1.28-1.28A1.28,1.28,0,0,0,91.77,236Z" transform="translate(3.11 54.57)"/><path class="cls-4" d="M106.17,236a1.28,1.28,0,1,0-1.28-1.28A1.28,1.28,0,0,0,106.17,236Z" transform="translate(3.11 54.57)"/><path class="cls-4" d="M279,236a1.28,1.28,0,1,0-1.28-1.28A1.28,1.28,0,0,0,279,236Z" transform="translate(3.11 54.57)"/><path class="cls-4" d="M293.37,236a1.28,1.28,0,1,0-1.28-1.28A1.28,1.28,0,0,0,293.37,236Z" transform="translate(3.11 54.57)"/><path class="cls-4" d="M307.77,236a1.28,1.28,0,1,0-1.28-1.28A1.28,1.28,0,0,0,307.77,236Z" transform="translate(3.11 54.57)"/><path class="cls-4" d="M-1.83,250.39a1.28,1.28,0,0,0,1.28-1.28,1.28,1.28,0,0,0-1.28-1.28,1.28,1.28,0,0,0-1.28,1.28A1.28,1.28,0,0,0-1.83,250.39Z" transform="translate(3.11 54.57)"/><circle class="cls-4" cx="15.68" cy="303.68" r="1.28"/><path class="cls-4" d="M27,250.39a1.28,1.28,0,1,0-1.28-1.28A1.28,1.28,0,0,0,27,250.39Z" transform="translate(3.11 54.57)"/><path class="cls-4" d="M41.37,250.39a1.28,1.28,0,1,0-1.28-1.28A1.28,1.28,0,0,0,41.37,250.39Z" transform="translate(3.11 54.57)"/><path class="cls-4" d="M55.77,250.39a1.28,1.28,0,1,0-1.28-1.28A1.28,1.28,0,0,0,55.77,250.39Z" transform="translate(3.11 54.57)"/><path class="cls-4" d="M70.17,250.39a1.28,1.28,0,1,0-1.28-1.28A1.28,1.28,0,0,0,70.17,250.39Z" transform="translate(3.11 54.57)"/><circle class="cls-4" cx="87.68" cy="303.68" r="1.28"/><path class="cls-4" d="M99,250.39a1.28,1.28,0,1,0-1.28-1.28A1.28,1.28,0,0,0,99,250.39Z" transform="translate(3.11 54.57)"/><path class="cls-4" d="M286.17,250.39a1.28,1.28,0,1,0-1.28-1.28A1.28,1.28,0,0,0,286.17,250.39Z" transform="translate(3.11 54.57)"/><circle class="cls-4" cx="303.68" cy="303.68" r="1.28"/></g></g></svg>